<svg width="247" height="81" viewBox="0 0 247 81" fill="none" xmlns="http://www.w3.org/2000/svg">
<path d="M28.4749 1.52513C27.108 0.158291 24.892 0.158291 23.5251 1.52513L1.25126 23.799C-0.115572 25.1658 -0.115572 27.3819 1.25126 28.7487C2.6181 30.1156 4.83418 30.1156 6.20101 28.7487L26 8.94975L45.799 28.7487C47.1658 30.1156 49.3819 30.1156 50.7487 28.7487C52.1156 27.3819 52.1156 25.1658 50.7487 23.799L28.4749 1.52513ZM29.5 77L29.5 4H22.5L22.5 77H29.5Z" fill="#CECECE"/>
<path d="M218.525 79.4749C219.892 80.8417 222.108 80.8417 223.475 79.4749L245.749 57.201C247.116 55.8342 247.116 53.6181 245.749 52.2513C244.382 50.8844 242.166 50.8844 240.799 52.2513L221 72.0503L201.201 52.2513C199.834 50.8844 197.618 50.8844 196.251 52.2513C194.884 53.6181 194.884 55.8342 196.251 57.201L218.525 79.4749ZM224.5 77V4H217.5V77H224.5Z" fill="#CECECE"/>
<path d="M90.7367 48V34H97.0167C98.6301 34 99.8701 34.3267 100.737 34.98C101.603 35.62 102.037 36.5 102.037 37.62C102.037 38.38 101.863 39.02 101.517 39.54C101.183 40.06 100.73 40.46 100.157 40.74C99.5834 41.02 98.9634 41.16 98.2967 41.16L98.6567 40.56C99.4567 40.56 100.163 40.7 100.777 40.98C101.39 41.26 101.877 41.6733 102.237 42.22C102.597 42.7533 102.777 43.42 102.777 44.22C102.777 45.42 102.323 46.3533 101.417 47.02C100.523 47.6733 99.1901 48 97.4167 48H90.7367ZM92.7367 46.38H97.3367C98.4434 46.38 99.2901 46.1933 99.8767 45.82C100.463 45.4467 100.757 44.86 100.757 44.06C100.757 43.2467 100.463 42.6533 99.8767 42.28C99.2901 41.9067 98.4434 41.72 97.3367 41.72H92.5567V40.1H96.8367C97.8501 40.1 98.6367 39.9133 99.1967 39.54C99.7567 39.1667 100.037 38.6067 100.037 37.86C100.037 37.1133 99.7567 36.5533 99.1967 36.18C98.6367 35.8067 97.8501 35.62 96.8367 35.62H92.7367V46.38ZM105.843 48V37.4H107.683V40.28L107.503 39.56C107.797 38.8267 108.29 38.2667 108.983 37.88C109.677 37.4933 110.53 37.3 111.543 37.3V39.16C111.463 39.1467 111.383 39.14 111.303 39.14C111.237 39.14 111.17 39.14 111.103 39.14C110.077 39.14 109.263 39.4467 108.663 40.06C108.063 40.6733 107.763 41.56 107.763 42.72V48H105.843ZM114.16 48V37.4H116.08V48H114.16ZM115.12 35.36C114.747 35.36 114.433 35.24 114.18 35C113.94 34.76 113.82 34.4667 113.82 34.12C113.82 33.76 113.94 33.46 114.18 33.22C114.433 32.98 114.747 32.86 115.12 32.86C115.493 32.86 115.8 32.98 116.04 33.22C116.293 33.4467 116.42 33.7333 116.42 34.08C116.42 34.44 116.3 34.7467 116.06 35C115.82 35.24 115.507 35.36 115.12 35.36ZM124.376 48.12C123.349 48.12 122.429 47.8933 121.616 47.44C120.816 46.9867 120.182 46.3533 119.716 45.54C119.249 44.7267 119.016 43.78 119.016 42.7C119.016 41.62 119.249 40.68 119.716 39.88C120.182 39.0667 120.816 38.4333 121.616 37.98C122.429 37.5267 123.349 37.3 124.376 37.3C125.269 37.3 126.076 37.5 126.796 37.9C127.516 38.3 128.089 38.9 128.516 39.7C128.956 40.5 129.176 41.5 129.176 42.7C129.176 43.9 128.962 44.9 128.536 45.7C128.122 46.5 127.556 47.1067 126.836 47.52C126.116 47.92 125.296 48.12 124.376 48.12ZM124.536 46.44C125.202 46.44 125.802 46.2867 126.336 45.98C126.882 45.6733 127.309 45.24 127.616 44.68C127.936 44.1067 128.096 43.4467 128.096 42.7C128.096 41.94 127.936 41.2867 127.616 40.74C127.309 40.18 126.882 39.7467 126.336 39.44C125.802 39.1333 125.202 38.98 124.536 38.98C123.856 38.98 123.249 39.1333 122.716 39.44C122.182 39.7467 121.756 40.18 121.436 40.74C121.116 41.2867 120.956 41.94 120.956 42.7C120.956 43.4467 121.116 44.1067 121.436 44.68C121.756 45.24 122.182 45.6733 122.716 45.98C123.249 46.2867 123.856 46.44 124.536 46.44ZM128.156 48V45.14L128.276 42.68L128.076 40.22V33.16H129.996V48H128.156ZM138.519 52C137.545 52 136.599 51.86 135.679 51.58C134.772 51.3133 134.032 50.9267 133.459 50.42L134.379 48.94C134.872 49.3667 135.479 49.7 136.199 49.94C136.919 50.1933 137.672 50.32 138.459 50.32C139.712 50.32 140.632 50.0267 141.219 49.44C141.805 48.8533 142.099 47.96 142.099 46.76V44.52L142.299 42.42L142.199 40.3V37.4H144.019V46.56C144.019 48.4267 143.552 49.8 142.619 50.68C141.685 51.56 140.319 52 138.519 52ZM138.279 47.56C137.252 47.56 136.332 47.3467 135.519 46.92C134.719 46.48 134.079 45.8733 133.599 45.1C133.132 44.3267 132.899 43.4333 132.899 42.42C132.899 41.3933 133.132 40.5 133.599 39.74C134.079 38.9667 134.719 38.3667 135.519 37.94C136.332 37.5133 137.252 37.3 138.279 37.3C139.185 37.3 140.012 37.4867 140.759 37.86C141.505 38.22 142.099 38.78 142.539 39.54C142.992 40.3 143.219 41.26 143.219 42.42C143.219 43.5667 142.992 44.52 142.539 45.28C142.099 46.04 141.505 46.6133 140.759 47C140.012 47.3733 139.185 47.56 138.279 47.56ZM138.499 45.88C139.205 45.88 139.832 45.7333 140.379 45.44C140.925 45.1467 141.352 44.74 141.659 44.22C141.979 43.7 142.139 43.1 142.139 42.42C142.139 41.74 141.979 41.14 141.659 40.62C141.352 40.1 140.925 39.7 140.379 39.42C139.832 39.1267 139.205 38.98 138.499 38.98C137.792 38.98 137.159 39.1267 136.599 39.42C136.052 39.7 135.619 40.1 135.299 40.62C134.992 41.14 134.839 41.74 134.839 42.42C134.839 43.1 134.992 43.7 135.299 44.22C135.619 44.74 136.052 45.1467 136.599 45.44C137.159 45.7333 137.792 45.88 138.499 45.88ZM152.657 48.12C151.524 48.12 150.524 47.8867 149.657 47.42C148.804 46.9533 148.137 46.3133 147.657 45.5C147.191 44.6867 146.957 43.7533 146.957 42.7C146.957 41.6467 147.184 40.7133 147.637 39.9C148.104 39.0867 148.737 38.4533 149.537 38C150.351 37.5333 151.264 37.3 152.277 37.3C153.304 37.3 154.211 37.5267 154.997 37.98C155.784 38.4333 156.397 39.0733 156.837 39.9C157.291 40.7133 157.517 41.6667 157.517 42.76C157.517 42.84 157.511 42.9333 157.497 43.04C157.497 43.1467 157.491 43.2467 157.477 43.34H148.457V41.96H156.477L155.697 42.44C155.711 41.76 155.571 41.1533 155.277 40.62C154.984 40.0867 154.577 39.6733 154.057 39.38C153.551 39.0733 152.957 38.92 152.277 38.92C151.611 38.92 151.017 39.0733 150.497 39.38C149.977 39.6733 149.571 40.0933 149.277 40.64C148.984 41.1733 148.837 41.7867 148.837 42.48V42.8C148.837 43.5067 148.997 44.14 149.317 44.7C149.651 45.2467 150.111 45.6733 150.697 45.98C151.284 46.2867 151.957 46.44 152.717 46.44C153.344 46.44 153.911 46.3333 154.417 46.12C154.937 45.9067 155.391 45.5867 155.777 45.16L156.837 46.4C156.357 46.96 155.757 47.3867 155.037 47.68C154.331 47.9733 153.537 48.12 152.657 48.12Z" fill="#A3A3A3"/>
</svg>
