<?xml version="1.0" encoding="utf-8"?>
<svg id="Layer_1" data-name="Layer 1" viewBox="0 0 1977.03 371.56" xmlns="http://www.w3.org/2000/svg">
  <defs>
    <style>.cls-1{fill:#023a44;}</style>
  </defs>
  <polygon class="cls-1" points="779.1 369.23 791.47 369.23 791.47 349.91 809.94 349.91 809.94 337.57 791.47 337.57 791.47 325.64 814.5 325.64 814.5 313.31 779.1 313.31 779.1 369.23"/>
  <path class="cls-1" d="M921.81,320.23a26.89,26.89,0,0,0-27.36,0,24.23,24.23,0,0,0-8.89,10.28,36.8,36.8,0,0,0,0,29.52,24.23,24.23,0,0,0,8.89,10.28A24.91,24.91,0,0,0,930.7,360a36.8,36.8,0,0,0,0-29.52A24.37,24.37,0,0,0,921.81,320.23Zm-4,37.54a13.89,13.89,0,0,1-19.4,0q-3.6-3.94-3.6-12.5t3.6-12.5a13.89,13.89,0,0,1,19.4,0q3.58,3.94,3.59,12.5T917.83,357.77Z" transform="translate(-9.38 -4)"/>
  <path class="cls-1" d="M1021.2,349.38a21.77,21.77,0,0,1-.92,7,7.15,7.15,0,0,1-3.33,4,18.06,18.06,0,0,1-13.75,0,7.15,7.15,0,0,1-3.33-4,21.46,21.46,0,0,1-.93-7V317.31H986.58v35.36q0,10.53,6.41,16t17.08,5.42q10.66,0,17.08-5.42t6.42-16V317.31H1021.2Z" transform="translate(-9.38 -4)"/>
  <polygon class="cls-1" points="1113.46 345.22 1112.23 345.22 1091.82 313.31 1079.46 313.31 1079.46 369.23 1091.82 369.23 1091.82 337.32 1093.06 337.32 1113.46 369.23 1125.83 369.23 1125.83 313.31 1113.46 313.31 1113.46 345.22"/>
  <path class="cls-1" d="M1210.84,317.31h-19.63v55.92h19.63q25.89,0,25.89-28T1210.84,317.31Zm12.6,37.13a7.73,7.73,0,0,1-3.83,4.85q-2.89,1.6-8.77,1.61h-7.26V329.64h7.26c4,0,6.9.53,8.81,1.57a7.62,7.62,0,0,1,3.79,4.77,46.27,46.27,0,0,1,0,18.46Z" transform="translate(-9.38 -4)"/>
  <path class="cls-1" d="M1301.09,317.31l-15.53,55.92h13.29l2.4-9h18.55l2.39,9h13.3L1320,317.31Zm3.4,34.54,5.41-20.72h1.24l5.41,20.72Z" transform="translate(-9.38 -4)"/>
  <polygon class="cls-1" points="1372.28 325.64 1386.11 325.64 1386.11 369.23 1398.48 369.23 1398.48 325.64 1412.31 325.64 1412.31 313.31 1372.28 313.31 1372.28 325.64"/>
  <rect class="cls-1" x="1469.13" y="313.31" width="12.37" height="55.92"/>
  <path class="cls-1" d="M1581.35,320.23a26.89,26.89,0,0,0-27.36,0,24.3,24.3,0,0,0-8.89,10.28,36.8,36.8,0,0,0,0,29.52,24.3,24.3,0,0,0,8.89,10.28,26.89,26.89,0,0,0,27.36,0,24.23,24.23,0,0,0,8.89-10.28,36.8,36.8,0,0,0,0-29.52A24.23,24.23,0,0,0,1581.35,320.23Zm-4,37.54a13.89,13.89,0,0,1-19.4,0q-3.59-3.94-3.59-12.5t3.59-12.5a13.89,13.89,0,0,1,19.4,0q3.6,3.94,3.59,12.5T1577.37,357.77Z" transform="translate(-9.38 -4)"/>
  <polygon class="cls-1" points="1668.95 345.22 1667.72 345.22 1647.31 313.31 1634.95 313.31 1634.95 369.23 1647.31 369.23 1647.31 337.32 1648.55 337.32 1668.95 369.23 1681.32 369.23 1681.32 313.31 1668.95 313.31 1668.95 345.22"/>
  <path class="cls-1" d="M1408.41,188.85c.1-.82.14-1.64.18-2.5v-.08h-20.84l-.07.62c-.56,5.07-3.56,8.75-8,9.84a22.51,22.51,0,0,1-5.18.63q-29.88.06-59.76,0a21.58,21.58,0,0,1-5.17-.63,10,10,0,0,1-7.65-7.32,20.7,20.7,0,0,1-.71-4.88c-.07-2.45-.05-4.93,0-7.34v-5.13l107.61.2v-8.12c0-6.24,0-12.48,0-18.72a60.18,60.18,0,0,0-.51-7.85,26.68,26.68,0,0,0-8.24-16.19,31.61,31.61,0,0,0-22.27-8.82c-9.49-.06-19-.07-28.58-.07-10.51,0-21,0-31.25,0h-6.43a35.9,35.9,0,0,0-6.28.63,31.8,31.8,0,0,0-10.55,4,29.14,29.14,0,0,0-11,11.62,30.28,30.28,0,0,0-3.37,14.54v17.53q0,11.84,0,23.67a39.67,39.67,0,0,0,.34,5,27.7,27.7,0,0,0,13,20.54,33.77,33.77,0,0,0,18.73,5.36H1377a33.44,33.44,0,0,0,15.6-3.67C1402,206.86,1407.14,199.38,1408.41,188.85Zm-107.24-47c.22-5.62,3.43-9.65,8.6-10.78a24.27,24.27,0,0,1,5.31-.57q22.89,0,45.77,0h13.35a19,19,0,0,1,6.6,1c4.18,1.52,6.56,4.8,6.88,9.49.19,2.7.16,5.44.13,8.1,0,1.13,0,2.26,0,3.39V154h-86.68v-5C1301.09,146.66,1301.08,144.23,1301.17,141.82Z" transform="translate(-9.38 -4)"/>
  <path class="cls-1" d="M1864.59,137.57a26.79,26.79,0,0,0-8.24-16.19,31.64,31.64,0,0,0-22.28-8.82c-9.49-.06-19-.07-28.58-.07-10.5,0-21,0-31.24,0h-6.44a35.79,35.79,0,0,0-6.27.63,31.77,31.77,0,0,0-10.56,4,29.21,29.21,0,0,0-11,11.62,30.51,30.51,0,0,0-3.37,14.54v17.53q0,11.84,0,23.67a41.66,41.66,0,0,0,.34,5,27.75,27.75,0,0,0,13,20.54,33.77,33.77,0,0,0,18.73,5.36h64.75a33.44,33.44,0,0,0,15.6-3.67c9.37-4.86,14.55-12.34,15.82-22.87.1-.82.14-1.64.17-2.5v-.08h-20.85l-.07.62c-.55,5.07-3.56,8.75-8,9.84a22.36,22.36,0,0,1-5.17.63q-29.88.06-59.76,0a21.6,21.6,0,0,1-5.18-.63,10,10,0,0,1-7.64-7.32,19.71,19.71,0,0,1-.71-4.88c-.08-2.45-.06-4.93,0-7.34v-5.13l107.6.2v-8.12c0-6.24,0-12.48,0-18.72A62,62,0,0,0,1864.59,137.57ZM1844.2,149c0,1.13,0,2.26,0,3.39V154h-86.68v-2c0-1,0-2,0-3,0-2.36,0-4.79.06-7.2.22-5.62,3.44-9.65,8.6-10.78a24.41,24.41,0,0,1,5.31-.57q22.89,0,45.78,0h13.35a19.1,19.1,0,0,1,6.6,1c4.18,1.52,6.55,4.8,6.88,9.49C1844.25,143.61,1844.22,146.35,1844.2,149Z" transform="translate(-9.38 -4)"/>
  <path class="cls-1" d="M1089.62,137.57a26.72,26.72,0,0,0-8.23-16.19,31.64,31.64,0,0,0-22.28-8.82c-9.49-.06-19-.07-28.58-.07-10.5,0-21,0-31.24,0h-6.44a35.79,35.79,0,0,0-6.27.63,31.77,31.77,0,0,0-10.56,4,29.14,29.14,0,0,0-11,11.62,30.51,30.51,0,0,0-3.37,14.54v17.33q0,11.92,0,23.87a39.67,39.67,0,0,0,.34,5,27.73,27.73,0,0,0,13,20.54,33.77,33.77,0,0,0,18.73,5.36h64.75a33.44,33.44,0,0,0,15.6-3.67c9.37-4.86,14.54-12.34,15.82-22.87.1-.81.13-1.64.17-2.5v-.08h-20.85l-.07.62c-.55,5.07-3.56,8.75-8,9.84a22.42,22.42,0,0,1-5.17.63q-29.88.06-59.76,0a21.6,21.6,0,0,1-5.18-.63,10,10,0,0,1-7.65-7.32,20.21,20.21,0,0,1-.7-4.88c-.08-2.45-.06-4.93,0-7.34v-2.35a8.14,8.14,0,0,1,.09-1l.17-1.55h107.33v-8.14q0-9.35,0-18.7A60.08,60.08,0,0,0,1089.62,137.57Zm-20.43,11.57c0,1.13,0,2.27,0,3.4a1.58,1.58,0,0,1-.17.72l-.28.71-.8.18H982.73l-.16-1.3a4.73,4.73,0,0,1-.07-.71c0-1,0-2,0-3,0-2.36,0-4.8.06-7.2.22-5.62,3.43-9.65,8.6-10.79a24.9,24.9,0,0,1,5.31-.56q22.89,0,45.77,0h13.35a19,19,0,0,1,6.6,1c4.18,1.52,6.56,4.8,6.88,9.49C1069.25,143.75,1069.22,146.49,1069.19,149.14Z" transform="translate(-9.38 -4)"/>
  <path class="cls-1" d="M513.78,139.68V60.13h-21V215.22c2.45,0,4.42,0,6.66,0,3.36,0,7.3-.06,14.35-.06V197.65c.06-15.49,0-12.05,0-27.54Z" transform="translate(-9.38 -4)"/>
  <path class="cls-1" d="M1982.66,128.55A28,28,0,0,0,1972,116.8a31.38,31.38,0,0,0-16.16-4.26c-8.48-.12-16.08-.12-23.26,0a34,34,0,0,0-13.82,3.15,24.67,24.67,0,0,0-7.49,5.72l-.12.13v-8.76h-21s.5,102.77.16,102.55h20.87l.29-69.5a46.64,46.64,0,0,1,.31-5.43,10.2,10.2,0,0,1,6-8.51,16.22,16.22,0,0,1,7.07-1.31q13.62,0,27.24,0a29.17,29.17,0,0,1,4.35.45c5.25.85,8.65,5,9.06,11.09h20.94A41.41,41.41,0,0,0,1982.66,128.55Z" transform="translate(-9.38 -4)"/>
  <path class="cls-1" d="M1209,128.55a28,28,0,0,0-10.65-11.75,31.41,31.41,0,0,0-16.16-4.26c-8.48-.12-16.09-.12-23.27,0a34,34,0,0,0-13.81,3.15,24.55,24.55,0,0,0-7.49,5.72l-.12.13v-8.76h-21s.5,102.77.17,102.55h20.87l.29-69.5a44.53,44.53,0,0,1,.31-5.43,10.17,10.17,0,0,1,6-8.51,16.27,16.27,0,0,1,7.08-1.31q13.62,0,27.24,0a29.45,29.45,0,0,1,4.35.45c5.25.85,8.65,5,9.06,11.09h20.93A41.17,41.17,0,0,0,1209,128.55Z" transform="translate(-9.38 -4)"/>
  <path class="cls-1" d="M905.53,215.37a27.37,27.37,0,0,0,3.36-.29l.27,0a32.59,32.59,0,0,0,16.07-6.59,27.37,27.37,0,0,0,8.85-11.63,32.4,32.4,0,0,0,2.21-12.38q0-19.81,0-39.64v-1.72a34.39,34.39,0,0,0-.71-7.7,27.91,27.91,0,0,0-10.32-16.32,33.48,33.48,0,0,0-20.76-7q-25.11-.06-50.22,0a37,37,0,0,0-6.14.56,32.42,32.42,0,0,0-13.09,5.56c-.27.19-1.69,1.19-2.79,2.08v-7.69H811.33V243l10.19-.06,10.78-.06V181.24q0-18.26,0-36.52v-.59a31.52,31.52,0,0,1,.15-3.74c.55-4.56,2.85-7.71,6.64-9.12a16.36,16.36,0,0,1,5.51-1.06c7.27-.06,14.54-.05,21.82-.05h15c7.2,0,14.41,0,21.61.06a16.51,16.51,0,0,1,5.5,1.09c4.09,1.52,6.64,5.45,6.66,10.27q0,22,0,44.09c0,5.66-3.1,9.8-8.26,11.07a21.61,21.61,0,0,1-5.18.62c-14.17,0-25.75,0-37.82,0h-11l-15.7,18c16.19.05,49.9,0,66.54,0Z" transform="translate(-9.38 -4)"/>
  <path class="cls-1" d="M1561.12,214.94V63.55l-21,.12V183.42a31.69,31.69,0,0,1-.15,3.75c-.55,4.56-2.84,7.71-6.63,9.12a16.45,16.45,0,0,1-5.51,1.06h-58.4a16.7,16.7,0,0,1-5.5-1.1c-4.1-1.52-6.65-5.45-6.66-10.27q-.06-22,0-44.09c0-5.66,3.1-9.8,8.27-11.07a21.61,21.61,0,0,1,5.18-.62l48.79,0,15.69-18c-16.2-.05-49.93,0-66.58,0h-1.72a27.37,27.37,0,0,0-3.36.29l-.27,0a32.59,32.59,0,0,0-16.07,6.59,27.75,27.75,0,0,0-8.85,11.63,32.59,32.59,0,0,0-2.21,12.38q0,20.69,0,41.36a34.39,34.39,0,0,0,.71,7.7,28,28,0,0,0,10.32,16.32,33.48,33.48,0,0,0,20.76,7q25.13.06,50.23,0a35.9,35.9,0,0,0,6.13-.55,32.42,32.42,0,0,0,13.09-5.56c.26-.19,1.36-.93,2.79-1.86v0h0l0,0v7.47Z" transform="translate(-9.38 -4)"/>
  <polygon class="cls-1" points="1223.78 57.32 1223.78 211.39 1244.8 211.38 1244.8 57.32 1223.78 57.32"/>
  <path class="cls-1" d="M613.82,61.32V131.5H527.58l-13.75,18c16.43,0,75.22,0,100,0v65.91h21V61.32Z" transform="translate(-9.38 -4)"/>
  <path class="cls-1" d="M1712.87,113c0-.23,0-.46,0-.71h-8.12c-4.23,0-8.45,0-12.71,0l-.08,8a34.29,34.29,0,0,0-22.67-8.25h-23.52q-12.83,0-25.65,0a37.7,37.7,0,0,0-6.3.47,33.55,33.55,0,0,0-13.22,5.25,27.92,27.92,0,0,0-11.2,14.74,34.19,34.19,0,0,0-1.52,10.68q0,13.58,0,27.15V184a40.19,40.19,0,0,0,.47,6.53,27.2,27.2,0,0,0,6.27,13.81,30.51,30.51,0,0,0,23.31,11c15.44.28,33.44.19,50.85.09h2l15.68-18c-19,0-46.45,0-64.45,0a20.11,20.11,0,0,1-5.48-.87c-4.42-1.28-7.17-5-7.56-10.24,0-.56,0-1.12,0-1.68V143.34a17,17,0,0,1,.74-5.62,10,10,0,0,1,6.18-6.48,17.82,17.82,0,0,1,5.49-1c7.28-.07,14.55-.06,21.83-.05h14.67c7.31,0,14.61,0,21.91.05a16.39,16.39,0,0,1,5.35,1,9.8,9.8,0,0,1,6.21,7.13,17,17,0,0,1,.58,4.27L1692,226h0v4a8.86,8.86,0,0,1-.67,3.24,10,10,0,0,1-5.84,5.66,15.8,15.8,0,0,1-6.3,1.12h-58l-13.76,18c15.1.08,41.49,0,61,0l13.73,0a36.61,36.61,0,0,0,4.24-.31,31,31,0,0,0,13.56-5,27.46,27.46,0,0,0,10.85-13.14,33.09,33.09,0,0,0,2.13-12.57q0-38.73,0-77.47Z" transform="translate(-9.38 -4)"/>
  <path class="cls-1" d="M784.89,113.1c0-.16,0-.32,0-.48H764V126q0,28.92,0,57.83a22.71,22.71,0,0,1-.48,4.7,10.07,10.07,0,0,1-5.48,7.35,16.32,16.32,0,0,1-7.52,1.54H737.28q-21.39,0-42.8,0a21.06,21.06,0,0,1-5.18-.63,10.67,10.67,0,0,1-7.92-7.43,16.16,16.16,0,0,1-.62-5.3V113.35c0-.24,0-.49,0-.73H659.86v15.89q0,27.56,0,55.1a53,53,0,0,0,.38,6.26,26.35,26.35,0,0,0,6.13,14.19,30.48,30.48,0,0,0,23.48,11.21l54.64.07a28.4,28.4,0,0,0,16.76-5,14.41,14.41,0,0,0,2.66-2.52h0l0,21.64a9.77,9.77,0,0,1-4.35,8.19,13.91,13.91,0,0,1-8.21,2.33h-58.3l-13.76,18c18.54,0,58,0,74.67,0a35.6,35.6,0,0,0,4.39-.31A31.12,31.12,0,0,0,774,251.1a27.3,27.3,0,0,0,10.88-22.3c.08-28.52.06-57.51,0-85.54Z" transform="translate(-9.38 -4)"/>
  <path class="cls-1" d="M163.43,132.27" transform="translate(-9.38 -4)"/>
  <path class="cls-1" d="M158.33,287.55" transform="translate(-9.38 -4)"/>
  <path class="cls-1" d="M191.55,283.44l.19,0c5.31-.49,14.63-1.63,20-2.33a8.7,8.7,0,0,1,.89,0,13,13,0,0,1,10.12,5.35l12.48,18a4.15,4.15,0,0,0,3,1.39l36.17-4.06a4.19,4.19,0,0,0,2.58-2l14-34a6.57,6.57,0,0,0-.55-5.54l-13.16-19.44A14.35,14.35,0,0,1,276,228.16l5.38-13a5.39,5.39,0,0,0-.17-3.33,2.39,2.39,0,0,0-.21-.34l-8.14-10.93a2.49,2.49,0,0,0-4.36.6l-9,21.85a12.75,12.75,0,0,1-9.66,7.53l-18.29,2.1a5.8,5.8,0,0,0-4.18,3.26l-7.53,18.21a13.12,13.12,0,0,1-9.15,7.56c-24.54,3.17-105.21,12.5-128.24,15.83a12.33,12.33,0,0,1-11-5.43L54.7,247.12c-1.4-2.11-3.72-5.4-5.21-7.44L33,215.59a14.35,14.35,0,0,1-1.28-12.67L57.9,139.58A12.8,12.8,0,0,1,67.54,132l40.39-4.78a5.81,5.81,0,0,0,4.19-3.27l5.32-12.86a2.49,2.49,0,0,0-2.42-3.51c-8.55,1-20.87,2.52-32.14,3.78-9.4.94-22.43,1.58-31.57,3.18a1.87,1.87,0,0,0-.32.08,6.42,6.42,0,0,0-2.9,2.79L9.56,210.65a5,5,0,0,0,.33,3.49c12.15,18.22,29,42.74,42.16,60.14l.09.1.08.12L56,280c3.77,5.24,16.32,23.87,20.14,29.49,3.5,4.72,9.93,13.59,13.36,18.46,4.14,5.52,15.75,23.2,19.75,29.1,4.91,7.29,5.72,8.1,12.84,17.75a2,2,0,0,0,1.77.8c29.51-3.13,41.6-4.87,64.63-7.62a3,3,0,0,0,1.92-4.73c-2.57-3.65-6-8.4-8.14-11.35a5.16,5.16,0,0,0-4.93-2.13c-.62.09-1.25.2-1.87.28-14.94,1.91-37.2,4.79-38.81,4.84-3.72,0-6.9-.92-9.19-3.87l-1-1.15-.14-.18-5.86-8.36c-3.75-5.16-15-22-18.79-27.54-1.23-1.7-5.2-7.72-6.08-10.24a6.86,6.86,0,0,1,.6-5.89,8,8,0,0,1,6.5-3.62l7.32-.69c5.62-.44,23.47-3.14,29.37-3.89" transform="translate(-9.38 -4)"/>
  <path class="cls-1" d="M328.19,251.57a14,14,0,0,1,1.48,12.64l-26.5,64.09a12.79,12.79,0,0,1-9.65,7.54l-65.06,7.64a9.82,9.82,0,0,1-1.09.06c-3.71,0-7.53-2.42-9.63-5.48L192.49,302a4.59,4.59,0,0,0-3-1.51l-16.5,2.7a.64.64,0,0,0-.41,1c9.43,15.95,15.9,23.66,22.09,32.46L211.34,361a6.06,6.06,0,0,0,4.5,2.81c7.31,0,7-1.12,18.13-2.35,23-2.74,28.86-3.24,44.77-4.83,6.16-.5,25-3.13,31.32-3.92a4.49,4.49,0,0,0,2.63-2.11l74.9-181.17a5,5,0,0,0-.33-3.49c-12.15-17.44-26.24-38.2-40.11-57.61a.52.52,0,0,0-.91.12l-6.8,16.45a4.66,4.66,0,0,0,.35,3.36l21.33,28.57c5.83,7.9,4.48,24.17,2.44,28.17L345.2,226.14c-2.23,5.62-8.63,6.33-11.9,1.39l-66-95.65a14.22,14.22,0,0,1-1.3-12.66L274,100a6.84,6.84,0,0,0,.28-1.77,7.6,7.6,0,0,0-1.18-4.61c-.41-.65-.9-1.39-1.43-2.14l-9.33-13.21c-4.27-5.91-5-7.45-10-14.33A4.54,4.54,0,0,0,248.87,62,12.81,12.81,0,0,0,247,62c-.05,0-4.77.49-9.18,1.07-9.43,1.25-24.16,3.37-24.31,3.39a4.6,4.6,0,0,0-2.68,2.15L201.57,91c-1.52,3.66-5.81,7.1-9.55,7.62l-14,2a4.84,4.84,0,0,0-2.75,2.12l-6.45,16.63a.8.8,0,0,0,.8,1.12c9.84-1.24,21.91-2.74,25.5-2.69a42.49,42.49,0,0,1,7,.55c1.85.33,3.71,1.9,5.53,4.66,4.2,6.38,8.67,14,8.67,14,2.66,3.33,7.6,2.65,9.06,2.44.1,0,10.63-2.19,10.71-2.19a59.68,59.68,0,0,1,6.41-.32c1.18,0,2.28,0,3.17.1,2.43.18,6.05,2.16,9.64,8.37" transform="translate(-9.38 -4)"/>
  <path class="cls-1" d="M87.89,25.85a4,4,0,0,0-2.47,1.87L58,94.15a.37.37,0,0,0,.35.52l17-1.44a4.61,4.61,0,0,0,2.6-2.13L94.78,50.2a12.8,12.8,0,0,1,9.66-7.54l51-5.91a8.31,8.31,0,0,1,1-.06c5.2-.07,8.31,5.3,6.1,10.33l-45,108.9a12.84,12.84,0,0,1-9.63,7.56L87,166.05a3.63,3.63,0,0,0-2.61,2L69.71,203.53a4.84,4.84,0,0,0,.34,3.47l4.57,6.74c3.22,4.67,8.9,12.86,12.08,17.67a35.86,35.86,0,0,0,5.12,6.32l.38.23a6.31,6.31,0,0,0,3.55.93,153,153,0,0,0,19.9-1.82c3.79-.58,9.53-3.16,11.26-.58L138.74,253a2.52,2.52,0,0,0,2.26,1.22,103.32,103.32,0,0,0,15.39-2.34.81.81,0,0,0,.46-1.25l-15.17-22.18a15,15,0,0,1-1.28-12.66l7.39-17.87a5.1,5.1,0,0,0-.33-3.56c-.08-.29-12-17.94-12.42-18.3a14.05,14.05,0,0,1-1.38-12.68L185,39.2c1.61-3.9,5.32-6.77,8.94-7l1.35-.28c18-3.23,25.15-3,35.55-4.54,7-.48,25.68-2.49,32.52-2.17.61,0,5.58.7,9.62,7,2.57,4,5.1,7.58,8.63,12.8,7.46,11,8.73,12.22,14.19,19.76l13.88,21.3A14,14,0,0,1,311,98.65l-16.8,40.63c-.34.84-.35,3,.27,3.52l10.07,13.56a.7.7,0,0,0,1.22-.16l27.13-65.62a4.75,4.75,0,0,0-.33-3.37l-2.78-3.84c-3.47-5.13-14.9-21.4-18.71-26.7C307.89,51.8,298.41,38,295,33c-3.23-5.27-15.33-22.46-19-27.83A3.62,3.62,0,0,0,273.22,4c-.39.07-9.55,1.59-16.42,2.36" transform="translate(-9.38 -4)"/>
  <path class="cls-1" d="M169.06,135.44" transform="translate(-9.38 -4)"/>
</svg>