<?xml version="1.0" encoding="utf-8"?>
<!-- Generator: Adobe Illustrator 27.2.0, SVG Export Plug-In . SVG Version: 6.00 Build 0)  -->
<svg version="1.1" id="Layer_1" xmlns="http://www.w3.org/2000/svg" xmlns:xlink="http://www.w3.org/1999/xlink" x="0px" y="0px"
	 viewBox="0 0 970 300" style="enable-background:new 0 0 970 300;" xml:space="preserve">
<style type="text/css">
	.st0{fill:#FFFFFF;}
	.st1{fill:#80C88D;}
	.st2{fill:#A8D04B;}
	.st3{fill:#F99F44;}
	.st4{fill:#24272A;}
</style>
<g>
	<polygon class="st0" points="324.7,101.7 324.6,74.5 351.6,74.3 351.7,101.6 365.6,101.5 365.3,38.5 351.4,38.6 351.5,62.1 
		324.5,62.2 324.4,38.7 310.5,38.8 310.8,101.8 	"/>
	<polygon class="st0" points="399.2,101.7 413.1,101.7 413,74.8 436.5,38.5 420,38.6 406,62.3 392.5,38.8 375.2,38.8 399.1,74.9 	
		"/>
	<path class="st0" d="M460.5,101.6l-0.1-24.6l10.2-0.1c3.3,0,6.4-0.3,9.3-1c2.8-0.6,5.3-1.7,7.4-3.2c2.1-1.5,3.7-3.5,4.9-6
		c1.2-2.5,1.7-5.6,1.7-9.3c0-3.7-0.7-6.8-2-9.3c-1.3-2.5-3-4.4-5.2-5.8c-2.2-1.4-4.7-2.4-7.6-3c-2.9-0.6-6-0.9-9.3-0.8l-23.4,0.1
		l0.3,63L460.5,101.6z M467.3,50.3c1.3,0,2.7,0.1,4.1,0.2c1.4,0.1,2.7,0.5,3.9,1c1.2,0.5,2.1,1.3,2.9,2.3c0.7,1,1.1,2.3,1.1,3.9
		c0,1.5-0.3,2.7-0.8,3.7c-0.6,1-1.3,1.8-2.2,2.3c-0.9,0.6-2,1-3.1,1.2c-1.2,0.2-2.4,0.4-3.6,0.4l-9.3,0l-0.1-14.9L467.3,50.3z"/>
	<polygon class="st0" points="548.1,101.5 548.1,88.7 517.5,88.9 517.4,76.1 544.8,75.9 544.7,63.1 517.4,63.2 517.3,51.5 
		546.3,51.3 546.2,38.5 503.3,38.7 503.7,101.8 	"/>
	<path class="st0" d="M572,101.6l-0.1-25.2l6.9,0l13.3,25.1l16.7-0.1l-16.2-26.5c4.5-0.9,7.8-2.8,10.1-6c2.3-3.1,3.4-6.9,3.4-11.4
		c0-3.7-0.7-6.7-2-9.2c-1.3-2.5-3-4.4-5.2-5.8c-2.2-1.4-4.7-2.5-7.6-3.1c-2.9-0.6-5.9-0.9-9.1-0.9l-24.4,0.1l0.3,63L572,101.6z
		 M580.8,50.3c1.2,0,2.5,0.1,3.8,0.2c1.3,0.2,2.5,0.5,3.5,1c1,0.5,1.8,1.2,2.5,2.2c0.7,0.9,1,2.2,1,3.8c0,1.7-0.4,3.1-1.1,4
		c-0.7,1-1.7,1.7-2.8,2.1c-1.1,0.5-2.4,0.7-3.8,0.8c-1.4,0.1-2.7,0.1-4,0.2l-8.2,0l-0.1-14.3L580.8,50.3z"/>
	<polygon class="st0" points="657.9,101.4 657.9,88.6 632.1,88.8 631.9,38.6 618,38.6 618.3,101.6 	"/>
	<polygon class="st0" points="712.3,88.7 681.7,88.8 681.7,76 709,75.9 708.9,63.1 681.6,63.2 681.5,51.4 710.5,51.3 710.4,38.5 
		667.6,38.7 667.9,101.7 712.3,101.5 	"/>
	<path class="st0" d="M810.5,101c4.2,1.5,8.7,2.3,13.6,2.2c4.6,0,9.2-0.5,13.6-1.5c4.4-1,8.7-2.5,12.8-4.7l-0.2-32.9l-24.7,0.1
		l0.1,12.8l11.3-0.1l0.1,10.2c-1.3,0.7-3.1,1.4-5.2,2.1c-2.2,0.7-4.8,1-7.8,1.1c-3,0-5.7-0.5-8.1-1.5c-2.4-1-4.5-2.4-6.2-4.2
		c-1.7-1.8-3.1-3.9-4-6.4c-0.9-2.5-1.4-5.2-1.4-8.1c0-2.9,0.4-5.6,1.3-8.1c0.9-2.5,2.2-4.7,3.9-6.5c1.7-1.8,3.8-3.2,6.2-4.3
		c2.4-1,5.1-1.5,8.1-1.6c3.6,0,6.5,0.5,8.9,1.5c2.4,1,4.5,2.5,6.4,4.4l9.7-10.7c-3.2-3-7-5-11.2-6.2c-4.2-1.2-8.9-1.8-13.9-1.7
		c-4.9,0-9.5,0.8-13.6,2.4c-4.2,1.6-7.7,3.8-10.7,6.7c-3,2.9-5.4,6.4-7,10.5c-1.7,4.1-2.5,8.7-2.5,13.7c0,5,0.9,9.6,2.6,13.7
		c1.7,4.1,4.1,7.6,7.1,10.4C802.7,97.3,806.3,99.5,810.5,101z"/>
	<polygon class="st0" points="874.3,87.4 874.3,74.6 901.6,74.4 901.6,61.6 874.2,61.7 874.1,50 903.1,49.8 903,37 860.2,37.3 
		860.5,100.3 905,100 904.9,87.2 	"/>
	<path class="st0" d="M928.7,75l6.9,0l13.3,25.1l16.7-0.1l-16.2-26.5c4.5-0.9,7.8-2.8,10.1-6c2.3-3.1,3.4-6.9,3.4-11.4
		c0-3.7-0.7-6.7-2-9.2c-1.3-2.5-3-4.4-5.2-5.8c-2.2-1.4-4.7-2.5-7.6-3.1c-2.9-0.6-5.9-0.9-9.1-0.9l-24.4,0.1l0.3,63l13.9-0.1
		L928.7,75z M928.5,48.9l9.1-0.1c1.3,0,2.5,0.1,3.8,0.2c1.3,0.2,2.5,0.5,3.5,1c1,0.5,1.9,1.2,2.5,2.2c0.7,0.9,1,2.2,1,3.8
		c0,1.7-0.4,3.1-1.1,4c-0.7,1-1.7,1.7-2.8,2.1c-1.1,0.5-2.4,0.7-3.8,0.8c-1.4,0.1-2.7,0.1-4,0.1l-8.2,0L928.5,48.9z"/>
	<g>
		<path class="st1" d="M306.9,213.3c0-39,28.7-65.7,65.3-65.7c22.5,0,38.1,10.7,48.2,25.1l-13.1,7.4c-7.2-10.9-20.6-18.5-35-18.5
			c-27.8,0-48.9,21.1-48.9,51.6c0,30.1,21.1,51.6,48.9,51.6c14.5,0,27.8-7.8,35-18.5l13.3,7.2c-10.7,14.7-25.9,25.3-48.3,25.3
			C335.7,278.9,306.9,252.3,306.9,213.3z"/>
		<path class="st1" d="M530.8,276.7l-11.2-28.4h-63.2l-11.2,28.4H427l51.2-127h19.6l51,127H530.8z M487.9,165.9l-26.8,68.5H515
			L487.9,165.9z"/>
		<path class="st1" d="M553.2,213.3c0-39,28.7-65.7,65.3-65.7c22.5,0,38.1,10.7,48.2,25.1l-13.1,7.4c-7.2-10.9-20.6-18.5-35-18.5
			c-27.8,0-48.9,21.1-48.9,51.6c0,30.1,21.1,51.6,48.9,51.6c14.5,0,27.8-7.8,35-18.5l13.3,7.2c-10.7,14.7-25.9,25.3-48.3,25.3
			C582,278.9,553.2,252.3,553.2,213.3z"/>
		<path class="st1" d="M718.5,276.7V163.8h-40.2v-14.1h96.3v14.1h-40.4v112.9H718.5z"/>
		<path class="st1" d="M795.6,276.7v-127h15.8v127H795.6z"/>
	</g>
	<g>
		<path class="st2" d="M113.2,237.4c-0.1-0.1-0.1-0.2-0.2-0.3c-2.8-3.9-6.4-7-10.4-9.1l2.7-5.7l0.6-1.3c0.8-1.6,0.1-3.5-1.5-4.2
			c-1.6-0.8-3.5-0.1-4.2,1.5l-0.8,1.6l-2.8,5.8c-2.8-0.8-5.7-1.3-8.6-1.3c-6.2,0-12.4,1.9-17.8,5.7c-13.7,9.8-16.9,28.9-7.1,42.7
			c0.2,0.3,0.4,0.6,0.7,0.9l-4.5,2.4c-0.4,0.2-0.7,0.5-1,0.8c-0.8,1-0.9,2.3-0.3,3.5c0.6,1.1,1.7,1.7,2.8,1.7c0.5,0,1-0.1,1.5-0.4
			l0.1,0l5.9-3.1c3.4,3.2,7.6,6.1,12.1,8.4l-0.2,7l0,0.9c0,1.8,1.4,3.2,3.1,3.2c0,0,0,0,0.1,0c1.3,0,2.3-0.7,2.9-1.8
			c0.2-0.4,0.3-0.8,0.3-1.3l0.1-5.3c4.4,1.6,8.8,2.5,13,2.5c1.9,0,3.7-0.2,5.4-0.6c3.7-1,7.4-2.6,10.3-6.9
			c-1.5-3.6-2.3-7.5-2.3-11.6V237.4z M73.5,262.5c-2,0-3.6-1.6-3.6-3.6c0-2,1.6-3.6,3.6-3.6c2,0,3.6,1.6,3.6,3.6
			C77.1,260.9,75.4,262.5,73.5,262.5z M91,243c0-2,1.6-3.6,3.6-3.6c2,0,3.6,1.6,3.6,3.6c0,2-1.6,3.6-3.6,3.6
			C92.6,246.6,91,245,91,243z M98.2,273.3c-2,0-3.6-1.6-3.6-3.6c0-2,1.6-3.6,3.6-3.6c2,0,3.6,1.6,3.6,3.6
			C101.8,271.7,100.2,273.3,98.2,273.3z"/>
		<path class="st2" d="M72.8,158.2c-0.2-1.5-1.5-2.7-3-2.7c-1.2,0-2.3,0.7-2.9,1.7c-0.2,0.4-0.4,0.9-0.4,1.4l-0.2,4.9
			c-0.4,0-0.8-0.1-1.2-0.1c-1.9,0-3.9,0.3-5.9,0.8c-11.4,3.3-18,15.1-14.7,26.5c0.3,0.9,0.6,1.9,1.1,3l-6.5,0.7l-2.3,0.2
			c-1.7,0.2-3,1.8-2.8,3.5c0.2,1.6,1.6,2.8,3.2,2.8c0.1,0,0.2,0,0.3,0l4.4-0.5l6.9-0.7c5.1,8.3,13.5,18.1,21.2,23
			c5.1-2.9,10.8-4.6,16.8-4.8c1.2-3.8,1.8-8.5,1.9-13.5l6.4-1.3l0.4-0.1c1.7-0.3,2.8-2,2.5-3.7c-0.3-1.5-1.6-2.5-3.1-2.6
			c-0.2,0-0.4,0-0.7,0.1l-5.6,1.1c-0.4-7.5-1.5-14.7-2.8-19c-1.9-6.8-6.9-11.9-13.1-14.2l0.2-6.1C72.8,158.6,72.8,158.4,72.8,158.2z
			 M75.8,206.3c0,2-1.6,3.6-3.6,3.6c-2,0-3.6-1.6-3.6-3.6c0-2,1.6-3.6,3.6-3.6C74.2,202.7,75.8,204.3,75.8,206.3z M73.5,180.8
			c0,2-1.6,3.6-3.6,3.6c-2,0-3.6-1.6-3.6-3.6c0-2,1.6-3.6,3.6-3.6C71.8,177.1,73.5,178.8,73.5,180.8z"/>
		<path class="st1" d="M39.6,218.8c-2.9-1.3-5.9-1.9-8.9-1.9c-6.3,0-12.3,2.7-16.6,7.5l-4-4.8c0,0-0.1-0.1-0.1-0.1
			c-1.1-1.2-3-1.4-4.4-0.3c-1.4,1.1-1.5,3.1-0.4,4.5l0.9,1.1l4.4,5.3c0,0.1-0.1,0.1-0.1,0.2c-3.8,8.7-1.6,18.6,4.9,24.8l-4.6,4.4
			L9.9,260c-1.3,1.2-1.3,3.2-0.1,4.5c0.6,0.7,1.5,1,2.3,1c0.8,0,1.6-0.3,2.2-0.9l1.4-1.3l4.8-4.6c0.4,0.2,0.8,0.4,1.2,0.6
			c3.8,1.7,8.6,2.6,13.5,2.6c5.8,0,11.7-1.2,16.1-3.8c-0.3-3-0.2-6.1,0.3-9.2c0.8-4.7,2.4-9.1,4.8-13
			C53,228.4,46.1,221.6,39.6,218.8z M31.7,236c-2,0-3.6-1.6-3.6-3.6c0-2,1.6-3.6,3.6-3.6c2,0,3.6,1.6,3.6,3.6
			C35.3,234.4,33.7,236,31.7,236z M38.2,252.7c-2,0-3.6-1.6-3.6-3.6c0-2,1.6-3.6,3.6-3.6c2,0,3.6,1.6,3.6,3.6
			C41.8,251.1,40.2,252.7,38.2,252.7z"/>
		<path class="st1" d="M15.5,161.6c0.7,0.3,1.6,0.3,2.4,0l1.3-0.5l6.6-2.6c2.1,1.7,4.6,3.1,7.3,4.2c3.3,1.3,6.9,2.2,10.2,2.3
			c3.5-4.1,8.1-7.2,13.3-8.8c2.2-7.8-1.6-18.9-7-24.6c-1.8-1.9-3.9-3.2-6.1-4.2c-2.1-0.8-4.3-1.2-6.4-1.3l0-5.9c0-0.2,0-0.3,0-0.5
			c-0.2-1.5-1.5-2.7-3.1-2.7c-1.8,0-3.2,1.4-3.2,3.2l0,0.3l0,6.6c-2.4,0.8-4.6,2.2-6.6,4c-6.2,6-7.1,15.3-2.9,22.3l-5.7,2.2
			c-0.1,0-0.2,0.1-0.3,0.2c-1.4,0.7-2.1,2.4-1.5,3.9C14,160.7,14.7,161.3,15.5,161.6z M37.2,140c0.8-1.8,2.9-2.7,4.7-2
			c1.8,0.8,2.7,2.9,2,4.7c-0.8,1.8-2.9,2.7-4.7,2C37.3,143.9,36.4,141.8,37.2,140z"/>
		<path class="st1" d="M214.5,111.3c-6.3,7.8-15.8,11.7-28.3,11.7c-1.1,0-2.2,0-3.4-0.1v12.5c0.5,0.1,0.9,0.1,1.4,0.1
			c1.2,0.1,2.4,0.1,3.6,0.1c0,0,0,0,0,0c20.4,0,31.7-8.8,37.6-16.1c16.8-20.9,9-52.4,8-56c-1.1-4.2-3.8-7.6-7.5-9.8
			c-2.2-1.3-4.7-2-7.1-2.1C221.6,61.8,228.7,93.6,214.5,111.3z"/>
		<path class="st1" d="M182.9,117.1c12.4,0.7,21.5-2.5,27.1-9.5c12.8-15.8,5.4-46.8,3-55.3c-8.1,2.6-12.9,11.2-10.7,19.5
			c2,7.9,2.8,21.6-2,27.4c-2.4,3-7.3,4.3-14.5,4c-0.3,0-0.5,0-0.8,0c-0.7,0-1.4,0.1-2.1,0.2V117.1z"/>
		<path class="st1" d="M113.2,149.1v-12.6c-6.6-2.2-22.1-9.7-26.6-31.6c-0.5-2.5-0.8-5-1-7.4c-0.4,0.8-0.9,1.6-1.6,2.3
			c-2.1,2.3-5.1,3.7-8.2,3.7c-0.8,0-1.6-0.1-2.4-0.3c1.5,15.5,8,25.5,13.8,31.5C95.4,143,105.2,147.1,113.2,149.1z"/>
		<path class="st1" d="M93.4,77.4c-0.2,0.9-0.4,1.8-0.6,2.8c0.1,0.6,0.2,1.2,0.2,1.8c0,1.8-0.4,3.5-1.2,5c-0.6,5.3-0.6,11,0.6,16.8
			c3.5,17.2,14.7,24,20.9,26.6v-15.8c-1-0.7-2-1.5-2.9-2.4c-3.6-3.8-5.3-10-4.8-18.1C105.9,86.1,100.7,79.3,93.4,77.4z"/>
		<path class="st1" d="M155,259.8V50.5c0-4.2-0.3-7.8-0.7-11.1c-0.8,0.2-1.6,0.3-2.5,0.3c-3.1,0-6.1-1.3-8.2-3.7
			c-1.6-1.7-2.5-3.9-2.7-6.2c-1.6,5.1-2.7,11.9-2.7,20.7v209.3c0,4.8,0.5,15.5,2.4,24.9c1.3,6.1,3,10.7,4.9,13.4h2
			c1.9-2.7,3.6-7.3,4.9-13.4C154.4,275.3,155,264.6,155,259.8z"/>
		<path class="st1" d="M177.1,212.1V44.4c0-4.2-1.1-8.2-2.9-11.7c-0.5,1.2-1.1,2.3-2,3.3c-2.1,2.3-5.1,3.7-8.2,3.7
			c-1.3,0-2.6-0.2-3.8-0.7c0.4,3.5,0.7,7.3,0.7,11.5v209.3c0,3.4-0.2,25.6-6.4,38.2c9.3-0.8,17.1-6.7,20.7-14.9
			c-1.8-3.3-3.2-7.1-4.3-11.3c-3.7-14-3-30.9,2-47.6C173.9,220,175.4,216,177.1,212.1z"/>
		<path class="st1" d="M138.6,297.5c-5.9-12.7-6.2-34.3-6.2-37.7V50.5c0-11.5,1.7-19.9,4.2-26.2c-0.7-1-1.2-2.1-1.5-3.3
			c-9.4,3.6-16.1,12.7-16.1,23.4V273C119,285,127.4,295,138.6,297.5z"/>
		<path class="st2" d="M186.5,288.8c-1.1-41.4,11.7-71,22.9-88.8c2.4-3.7,4.8-7.1,7.1-10.2c-3-2-4.9-5.3-4.9-9.1c0-0.2,0-0.3,0-0.5
			c-13.7,6.5-26.8,23.5-33.4,45.6C170.3,252.2,174.2,277.7,186.5,288.8z"/>
		<path class="st2" d="M230.3,220c1-6.5,1.6-12.7,1.9-18.3c-1.1,0.4-2.3,0.6-3.5,0.6c-3.1,0-6.1-1.3-8.2-3.7
			c-0.6-0.7-1.1-1.5-1.6-2.3c-1.6,2.2-3.2,4.5-4.8,7c-10.9,17.4-23.4,46.5-21.8,87.4C217.4,271.8,226.8,242.2,230.3,220z"/>
		<path class="st2" d="M246.7,246.3c5.2-17.2,5.3-34.1,1.4-46.8c-2,1.7-4.6,2.7-7.2,2.7c-1,0-1.9-0.1-2.8-0.4
			c-0.3,5.8-0.9,12.2-1.9,18.9c-5,32.2-18.4,57.5-38.9,73.6C215.6,297.9,237.5,277,246.7,246.3z"/>
		<path class="st3" d="M220.5,176c-4.1,1.8-4.1,7.6,0,9.4c2.1,0.9,3.3,3,3,5.3c-0.4,3.3,2.3,5.7,5.1,5.7c1,0,2.1-0.3,3-1
			c0.9-0.7,2-1,3-1c1.1,0,2.1,0.3,3,1h0c1,0.7,2,1,3,1c2.9,0,5.5-2.4,5.1-5.7c-0.2-2.2,1-4.4,3-5.3c4.1-1.8,4.1-7.6,0-9.4
			c-2.1-0.9-3.3-3-3-5.3c0.4-3.3-2.3-5.7-5.1-5.7c-1,0-2.1,0.3-3,1h0c-0.9,0.7-2,1-3,1c-1.1,0-2.1-0.3-3-1c-1-0.7-2-1-3-1
			c-2.9,0-5.5,2.4-5.1,5.7C223.8,173,222.5,175.1,220.5,176z M234.7,184.4c-2,0-3.6-1.6-3.6-3.6c0-2,1.6-3.6,3.6-3.6
			c2,0,3.6,1.6,3.6,3.6C238.3,182.8,236.7,184.4,234.7,184.4z"/>
		<path class="st3" d="M72.9,96.7c1,0.7,2,1,3,1c2.9,0,5.5-2.4,5.1-5.7c-0.2-2.2,1-4.4,3-5.3h0c4.1-1.8,4.1-7.6,0-9.4h0
			c-2.1-0.9-3.3-3-3-5.3c0.4-3.3-2.3-5.7-5.1-5.7c-1,0-2.1,0.3-3,1c-0.9,0.7-2,1-3,1c-1.1,0-2.1-0.3-3-1c-1-0.7-2-1-3-1
			c-2.9,0-5.5,2.4-5.1,5.7c0.2,2.2-1,4.4-3,5.3h0c-4.1,1.8-4.1,7.6,0,9.4h0c2.1,0.9,3.3,3,3,5.3c-0.4,3.3,2.3,5.7,5.1,5.7
			c1,0,2.1-0.3,3-1c0.9-0.7,2-1,3-1C70.9,95.7,72,96,72.9,96.7z M66.2,82c0-2,1.6-3.6,3.6-3.6c2,0,3.6,1.6,3.6,3.6s-1.6,3.6-3.6,3.6
			C67.8,85.6,66.2,84,66.2,82z"/>
		<path class="st3" d="M143.6,22.8c2.1,0.9,3.3,3,3,5.3v0c-0.4,3.3,2.3,5.7,5.1,5.7c1,0,2.1-0.3,3-1c0.9-0.7,2-1,3-1s2.1,0.3,3,1
			c1,0.7,2,1,3,1c2.9,0,5.5-2.4,5.1-5.7v0c-0.2-2.2,1-4.4,3-5.3c4.1-1.8,4.1-7.6,0-9.4c-2.1-0.9-3.3-3-3-5.3
			c0.4-3.3-2.3-5.7-5.1-5.7c-1,0-2.1,0.3-3,1c-0.9,0.7-2,1-3,1s-2.1-0.3-3-1c-1-0.7-2-1-3-1c-2.9,0-5.5,2.4-5.1,5.7
			c0.2,2.2-1,4.4-3,5.3C139.5,15.2,139.5,21,143.6,22.8z M161.5,18.1c0,2-1.6,3.6-3.6,3.6c-2,0-3.6-1.6-3.6-3.6s1.6-3.6,3.6-3.6
			C159.8,14.5,161.5,16.1,161.5,18.1z"/>
	</g>
	<path class="st0" d="M769.1,45.6c-3.4-2.5-7.4-4.3-11.9-5.4c-4.5-1.1-9.4-1.6-14.4-1.6L722,38.7l0.3,63l22.7-0.1
		c4.7,0,9.2-0.7,13.4-2.1c4.3-1.4,8-3.4,11.3-6.1c3.2-2.7,5.8-5.9,7.7-9.8c1.9-3.9,2.9-8.4,2.8-13.5c0-5.8-1-10.6-3.1-14.7
		C775.2,51.4,772.5,48.1,769.1,45.6z M764.2,78.5c-1.1,2.5-2.7,4.5-4.7,6c-2,1.5-4.4,2.6-7.2,3.3c-2.8,0.7-5.7,1-8.9,1l-7.2,0
		l-0.2-37.4l8.2,0c2.9,0,5.7,0.3,8.3,1.1c2.6,0.7,5,1.8,6.9,3.3c2,1.5,3.5,3.3,4.7,5.6c1.2,2.3,1.8,5,1.8,8
		C765.9,73,765.3,76,764.2,78.5z"/>
</g>
</svg>
