<?xml version="1.0" encoding="utf-8"?>
<!-- Generator: Adobe Illustrator 24.1.2, SVG Export Plug-In . SVG Version: 6.00 Build 0)  -->
<svg version="1.1" id="Layer_1" xmlns="http://www.w3.org/2000/svg" xmlns:xlink="http://www.w3.org/1999/xlink" x="0px" y="0px"
	 viewBox="0 0 1072.14 300" style="enable-background:new 0 0 1072.14 300;" xml:space="preserve">
<style type="text/css">
	.st0{fill:none;}
	.st1{fill:#24272A;}
	.st2{fill:#AA9F84;}
	.st3{fill:#A8D04B;}
	.st4{fill:#80C88D;}
	.st5{fill:#FFFFFF;}
</style>
<g>
	<polygon class="st0" points="511.94,235.08 565.78,235.08 538.76,166.58 	"/>
	<path class="st0" d="M520.64,65.27c1.25,0,2.45-0.13,3.61-0.37c1.15-0.24,2.19-0.65,3.11-1.22c0.92-0.57,1.65-1.34,2.21-2.33
		c0.56-0.98,0.83-2.21,0.83-3.7c-0.01-1.6-0.39-2.89-1.13-3.87c-0.75-0.98-1.7-1.73-2.87-2.26c-1.15-0.52-2.45-0.86-3.88-1
		c-1.43-0.14-2.79-0.21-4.1-0.2l-7.12,0.03l0.08,14.95L520.64,65.27z"/>
	<path class="st0" d="M631.09,64.65c1.24,0,2.57-0.06,3.96-0.15c1.39-0.1,2.65-0.36,3.78-0.82c1.13-0.45,2.06-1.15,2.8-2.11
		c0.73-0.95,1.1-2.29,1.09-4.01c-0.01-1.61-0.35-2.88-1-3.82c-0.65-0.95-1.49-1.67-2.5-2.17c-1.01-0.5-2.18-0.83-3.48-1.01
		c-1.31-0.17-2.58-0.25-3.83-0.24l-9.09,0.05l0.07,14.32L631.09,64.65z"/>
	<path class="st0" d="M810.49,55.75c-1.96-1.47-4.28-2.57-6.92-3.3c-2.65-0.73-5.43-1.09-8.34-1.07l-8.19,0.05l0.2,37.38l7.22-0.04
		c3.2-0.02,6.19-0.36,8.94-1.02c2.76-0.68,5.15-1.77,7.15-3.29c2.01-1.52,3.59-3.52,4.74-5.99c1.14-2.46,1.71-5.48,1.69-9.04
		c-0.02-3.08-0.61-5.77-1.78-8.05C814.03,59.1,812.46,57.23,810.49,55.75z"/>
	<path class="st0" d="M991.89,63.01c1.39-0.1,2.65-0.36,3.78-0.83c1.12-0.44,2.05-1.15,2.79-2.1c0.74-0.95,1.1-2.29,1.1-4.01
		c-0.01-1.61-0.35-2.88-1-3.82c-0.66-0.95-1.49-1.67-2.51-2.17c-1.01-0.5-2.18-0.84-3.48-1.01c-1.31-0.18-2.58-0.25-3.84-0.25
		l-9.08,0.05l0.08,14.32l8.2-0.05C989.17,63.16,990.49,63.1,991.89,63.01z"/>
	<polygon class="st1" points="375.82,101.71 375.67,74.48 402.66,74.33 402.81,101.56 416.7,101.5 416.37,38.48 402.47,38.55 
		402.6,62.05 375.61,62.19 375.48,38.7 361.59,38.77 361.92,101.78 	"/>
	<polygon class="st1" points="450.36,101.74 464.25,101.67 464.11,74.79 487.61,38.53 471.13,38.61 457.1,62.27 443.61,38.76 
		426.33,38.85 450.22,74.86 	"/>
	<path class="st1" d="M511.56,101.63l-0.13-24.57l10.16-0.05c3.33-0.02,6.41-0.35,9.26-0.99c2.85-0.63,5.3-1.7,7.38-3.19
		c2.07-1.5,3.69-3.49,4.87-5.99c1.17-2.51,1.75-5.59,1.73-9.27c-0.02-3.74-0.68-6.84-1.97-9.29c-1.29-2.45-3.02-4.4-5.19-5.85
		c-2.18-1.44-4.73-2.45-7.64-3.02c-2.91-0.58-6-0.86-9.26-0.84l-23.43,0.12l0.34,63.01L511.56,101.63z M518.42,50.33
		c1.31-0.01,2.67,0.06,4.1,0.2c1.43,0.14,2.73,0.48,3.88,1c1.16,0.53,2.11,1.28,2.87,2.26c0.74,0.97,1.12,2.27,1.13,3.87
		c0,1.48-0.27,2.72-0.83,3.7c-0.56,0.98-1.29,1.75-2.21,2.33c-0.92,0.57-1.96,0.98-3.11,1.22c-1.16,0.24-2.36,0.37-3.61,0.37
		l-9.26,0.05l-0.08-14.95L518.42,50.33z"/>
	<polygon class="st1" points="599.23,101.53 599.17,88.72 568.61,88.87 568.55,76.05 595.89,75.91 595.83,63.09 568.48,63.23 
		568.42,51.49 597.37,51.34 597.3,38.52 554.46,38.74 554.79,101.75 	"/>
	<path class="st1" d="M623.08,101.63l-0.13-25.19l6.87-0.04l13.31,25.12l16.66-0.09L643.6,74.91c4.46-0.85,7.83-2.84,10.12-5.97
		c2.3-3.13,3.44-6.92,3.42-11.37c-0.02-3.67-0.68-6.74-1.97-9.2c-1.29-2.45-3.02-4.4-5.19-5.85c-2.18-1.44-4.71-2.47-7.59-3.07
		c-2.87-0.61-5.93-0.91-9.13-0.89l-24.4,0.13l0.32,63.01L623.08,101.63z M631.9,50.32c1.25-0.01,2.52,0.07,3.83,0.24
		c1.3,0.17,2.47,0.5,3.48,1.01c1.01,0.5,1.85,1.22,2.5,2.17c0.66,0.94,0.99,2.22,1,3.82c0,1.72-0.36,3.05-1.09,4.01
		c-0.74,0.95-1.67,1.66-2.8,2.11c-1.12,0.46-2.38,0.72-3.78,0.82c-1.39,0.1-2.72,0.15-3.96,0.15l-8.2,0.04l-0.07-14.32L631.9,50.32z
		"/>
	<polygon class="st1" points="709.04,101.43 708.97,88.62 683.23,88.75 682.96,38.55 669.07,38.62 669.4,101.64 	"/>
	<polygon class="st1" points="763.39,88.67 732.83,88.83 732.76,76.01 760.11,75.87 760.04,63.06 732.7,63.19 732.64,51.45 
		761.58,51.29 761.52,38.48 718.68,38.7 719.01,101.71 763.45,101.48 	"/>
	<path class="st1" d="M820.24,45.6c-3.4-2.5-7.38-4.31-11.92-5.42c-4.55-1.1-9.35-1.64-14.4-1.61l-20.84,0.11l0.34,63.01l22.71-0.12
		c4.69-0.02,9.17-0.73,13.44-2.12c4.27-1.39,8.02-3.41,11.28-6.07c3.25-2.65,5.83-5.93,7.74-9.83c1.91-3.89,2.85-8.39,2.82-13.5
		c-0.02-5.76-1.05-10.64-3.06-14.67C826.34,51.36,823.64,48.11,820.24,45.6z M815.29,78.47c-1.14,2.47-2.72,4.47-4.74,5.99
		c-2.01,1.52-4.39,2.62-7.15,3.29c-2.75,0.66-5.74,1-8.94,1.02l-7.22,0.04l-0.2-37.38l8.19-0.05c2.91-0.01,5.69,0.34,8.34,1.07
		c2.64,0.72,4.95,1.82,6.92,3.3c1.97,1.48,3.54,3.35,4.7,5.63c1.17,2.28,1.77,4.96,1.78,8.05C817,72.99,816.43,76,815.29,78.47z"/>
	<path class="st1" d="M861.6,101.01c4.16,1.52,8.71,2.26,13.64,2.24c4.63-0.02,9.17-0.52,13.62-1.5c4.45-0.97,8.71-2.54,12.8-4.7
		l-0.17-32.93l-24.67,0.13l0.06,12.82l11.31-0.06l0.06,10.24c-1.3,0.72-3.05,1.43-5.24,2.12c-2.2,0.69-4.81,1.04-7.84,1.06
		c-2.97,0.01-5.66-0.47-8.07-1.47c-2.41-1-4.48-2.4-6.21-4.2c-1.73-1.8-3.06-3.93-3.99-6.39c-0.93-2.45-1.4-5.16-1.42-8.14
		c-0.02-2.9,0.43-5.61,1.33-8.1c0.91-2.5,2.22-4.66,3.93-6.48c1.72-1.82,3.77-3.23,6.17-4.25c2.4-1.02,5.09-1.54,8.05-1.55
		c3.56-0.02,6.54,0.47,8.91,1.46c2.38,1,4.53,2.47,6.44,4.42L900.05,45c-3.22-2.95-6.96-5.02-11.21-6.22
		c-4.25-1.19-8.9-1.78-13.95-1.75c-4.93,0.02-9.47,0.82-13.61,2.39c-4.16,1.56-7.74,3.79-10.75,6.68c-3.02,2.9-5.36,6.4-7.03,10.5
		c-1.67,4.11-2.49,8.67-2.46,13.72c0.03,5.05,0.9,9.61,2.61,13.7c1.72,4.08,4.09,7.56,7.14,10.42
		C853.84,97.29,857.44,99.48,861.6,101.01z"/>
	<polygon class="st1" points="925.45,87.38 925.38,74.56 952.73,74.41 952.67,61.6 925.32,61.74 925.26,49.99 954.2,49.84 
		954.14,37.03 911.3,37.25 911.63,100.26 956.07,100.03 956,87.22 	"/>
	<path class="st1" d="M979.79,74.96l6.86-0.04l13.32,25.12l16.66-0.09l-16.17-26.53c4.45-0.86,7.83-2.84,10.13-5.97
		c2.29-3.13,3.43-6.92,3.41-11.37c-0.02-3.67-0.68-6.74-1.96-9.2c-1.29-2.46-3.02-4.41-5.2-5.85c-2.18-1.44-4.71-2.47-7.59-3.07
		c-2.89-0.62-5.93-0.91-9.13-0.89l-24.4,0.13l0.33,63.01l13.89-0.07L979.79,74.96z M979.66,48.88l9.08-0.05
		c1.26-0.01,2.52,0.07,3.84,0.25c1.3,0.17,2.47,0.5,3.48,1.01c1.02,0.5,1.85,1.22,2.51,2.17c0.65,0.94,0.99,2.22,1,3.82
		c0,1.72-0.36,3.05-1.1,4.01c-0.74,0.95-1.67,1.66-2.79,2.1c-1.13,0.46-2.39,0.73-3.78,0.83c-1.4,0.09-2.72,0.15-3.96,0.15
		l-8.2,0.05L979.66,48.88z"/>
	<path class="st2" d="M423.08,265.52c-27.78,0-48.9-21.5-48.9-51.56c0-30.44,21.12-51.56,48.9-51.56c14.46,0,27.78,7.61,35.01,18.45
		l13.13-7.42c-10.08-14.46-25.68-25.12-48.14-25.12c-36.53,0-65.26,26.64-65.26,65.64s28.73,65.64,65.26,65.64
		c22.45,0,37.67-10.65,48.33-25.3l-13.32-7.23C450.86,257.72,437.54,265.52,423.08,265.52z"/>
	<path class="st2" d="M529.06,150.41l-51.18,126.91h18.07l11.23-28.35h63.17l11.23,28.35h18.07l-50.99-126.91H529.06z
		 M511.94,235.08l26.83-68.49l27.02,68.49H511.94z"/>
	<path class="st2" d="M669.28,265.52c-27.78,0-48.9-21.5-48.9-51.56c0-30.44,21.12-51.56,48.9-51.56c14.46,0,27.78,7.61,35.01,18.45
		l13.13-7.42c-10.08-14.46-25.69-25.12-48.14-25.12c-36.53,0-65.26,26.64-65.26,65.64s28.73,65.64,65.26,65.64
		c22.45,0,37.67-10.65,48.33-25.3l-13.32-7.23C697.06,257.72,683.74,265.52,669.28,265.52z"/>
	<polygon class="st2" points="729.02,164.49 769.17,164.49 769.17,277.32 784.96,277.32 784.96,164.49 825.29,164.49 825.29,150.41 
		729.02,150.41 	"/>
	<path class="st2" d="M933.93,227.66c0,23.21-12.56,37.86-35.96,37.86c-23.4,0-35.77-14.65-35.77-37.86v-77.25h-15.98v77.63
		c0,31.2,17.5,51.56,51.75,51.56c34.44,0,51.94-20.17,51.94-51.75v-77.44h-15.98V227.66z"/>
	<path class="st2" d="M992.34,182.75c0-11.99,11.03-20.17,26.07-20.17c13.89,0,27.21,4.57,36.72,15.22l9.51-11.61
		c-10.66-11.23-25.69-17.89-44.9-17.89c-25.11,0-43.76,14.46-43.76,35.39c0,45.28,75.15,27.02,75.15,59.74
		c0,9.89-7.23,22.07-29.87,22.07c-17.88,0-31.58-8.75-39.76-18.27l-9.51,12.18c10.47,11.8,26.83,20.17,48.71,20.17
		c34.25,0,46.81-19.03,46.81-37.29C1067.5,194.93,992.34,211.29,992.34,182.75z"/>
	<path class="st3" d="M89.92,230.32c4.51,1.63,9.12,2.58,13.46,2.58c1.93,0,3.81-0.2,5.61-0.6c0.08-0.37,0.15-0.76,0.24-1.12
		c2.57-10.77,8.54-19.93,16.59-26.52c-0.15-10.45-3.48-21.51-8.68-28.77c-2.93-4.09-6.66-7.24-10.81-9.46l2.84-5.95l0.65-1.36
		c0.78-1.64,0.09-3.6-1.55-4.39c-1.64-0.78-3.61-0.09-4.39,1.55l-0.79,1.65l-2.88,6.03c-2.89-0.84-5.87-1.32-8.88-1.32
		c-6.38,0-12.83,1.92-18.41,5.92c-14.24,10.18-17.52,29.98-7.34,44.22c0.22,0.3,0.46,0.6,0.69,0.9l-4.69,2.48
		c-0.42,0.22-0.76,0.52-1.04,0.87c-0.79,0.99-0.96,2.39-0.33,3.58c0.59,1.11,1.73,1.75,2.91,1.75c0.52,0,1.05-0.12,1.54-0.38
		l0.07-0.04l6.11-3.24c3.57,3.34,7.9,6.36,12.54,8.75l-0.16,7.26l-0.02,0.91c-0.04,1.82,1.4,3.32,3.22,3.36c0.02,0,0.05,0,0.07,0
		c1.3,0,2.43-0.76,2.96-1.87c0.2-0.41,0.32-0.86,0.33-1.34L89.92,230.32z M101.74,213.48c-2.07,0-3.74-1.67-3.74-3.74
		c0-2.07,1.68-3.74,3.74-3.74c2.07,0,3.74,1.68,3.74,3.74C105.49,211.81,103.81,213.48,101.74,213.48z M98,178.27
		c2.07,0,3.74,1.68,3.74,3.74c0,2.07-1.68,3.74-3.74,3.74c-2.07,0-3.74-1.68-3.74-3.74C94.26,179.94,95.94,178.27,98,178.27z
		 M76.12,202.28c-2.07,0-3.74-1.68-3.74-3.74c0-2.07,1.67-3.74,3.74-3.74c2.07,0,3.74,1.67,3.74,3.74
		C79.86,200.6,78.18,202.28,76.12,202.28z"/>
	<path class="st3" d="M259.65,215.63c4.09-10.51,2.43-22.87-5.4-32.06c-6.27-7.36-15.18-11.15-24.15-11.15
		c-1.48,0-2.96,0.13-4.43,0.34l-2.57-6.26l-0.28-0.67c-0.69-1.68-2.61-2.49-4.29-1.8c-1.66,0.68-2.46,2.57-1.81,4.24
		c0.01,0.02,0.01,0.04,0.02,0.05l2.47,6.03c-3.43,1.26-6.7,3.12-9.64,5.63c-7.75,6.6-14.39,18.53-16.38,29.98
		c6.73,7.55,11.06,17.11,12.17,27.34c3.77,1.55,8.1,2.28,12.64,2.28c5.47,0,11.21-1.04,16.59-2.79l2.08,5.8
		c0.05,0.14,0.15,0.26,0.21,0.39c0.57,1.1,1.68,1.79,2.88,1.79c0.37,0,0.74-0.06,1.11-0.19c1.61-0.58,2.48-2.29,2.06-3.92
		c-0.03-0.1-0.04-0.2-0.07-0.29l-2.14-5.97c3.76-1.73,7.18-3.81,9.93-6.15c2.29-1.95,4.2-4.16,5.79-6.54l6.88,1.34l1.18,0.23
		c0.21,0.04,0.43,0.06,0.64,0.06c1.54,0,2.92-1.09,3.22-2.66c0.32-1.66-0.67-3.25-2.24-3.75c-0.12-0.04-0.23-0.08-0.36-0.11
		L259.65,215.63z M218.31,195.86c-2.07,0-3.74-1.67-3.74-3.74c0-2.07,1.68-3.74,3.74-3.74c2.07,0,3.74,1.67,3.74,3.74
		C222.05,194.19,220.38,195.86,218.31,195.86z M228.87,225.59c-2.07,0-3.74-1.68-3.74-3.74c0-2.07,1.67-3.74,3.74-3.74
		c2.07,0,3.74,1.68,3.74,3.74C232.61,223.91,230.94,225.59,228.87,225.59z M247.77,206c-2.07,0-3.74-1.68-3.74-3.74
		c0-2.07,1.67-3.74,3.74-3.74c2.07,0,3.74,1.67,3.74,3.74C251.51,204.32,249.84,206,247.77,206z"/>
	<path class="st3" d="M50.53,137.26c5.28,8.6,13.97,18.77,21.93,23.82c5.32-3.04,11.23-4.73,17.38-4.97
		c1.27-3.9,1.85-8.84,1.95-14.01l6.6-1.3l0.41-0.08c1.78-0.35,2.94-2.08,2.59-3.87c-0.31-1.55-1.66-2.63-3.18-2.65
		c-0.22,0-0.45,0.01-0.68,0.06l-5.84,1.16c-0.39-7.77-1.6-15.25-2.88-19.7c-2.01-7.03-7.19-12.28-13.54-14.68l0.2-6.29
		c0.01-0.2-0.01-0.39-0.04-0.58c-0.22-1.55-1.52-2.77-3.14-2.82c-1.25-0.01-2.39,0.69-2.97,1.73c-0.24,0.43-0.4,0.92-0.42,1.45
		l-0.16,5.1c-0.43-0.03-0.86-0.05-1.29-0.05c-2.02,0-4.08,0.28-6.11,0.86c-11.81,3.37-18.65,15.67-15.28,27.48
		c0.27,0.93,0.66,1.97,1.15,3.08l-6.78,0.73l-2.35,0.25c-1.81,0.19-3.11,1.82-2.92,3.62c0.18,1.69,1.61,2.94,3.27,2.94
		c0.12,0,0.24-0.01,0.36-0.02l4.6-0.49L50.53,137.26z M78.55,144c0,2.07-1.68,3.74-3.74,3.74c-2.07,0-3.74-1.68-3.74-3.74
		c0-2.07,1.67-3.74,3.74-3.74C76.87,140.26,78.55,141.93,78.55,144z M72.38,121.26c-2.07,0-3.74-1.68-3.74-3.74
		c0-2.07,1.68-3.74,3.74-3.74c2.07,0,3.74,1.68,3.74,3.74C76.12,119.59,74.44,121.26,72.38,121.26z"/>
	<path class="st3" d="M107.49,57.54c-4.29,9.04-4.29,19.95,1.02,29.32c5.66,9.99,18.23,19.89,30.53,23.13
		c6.69-5.61,15.27-8.92,24.57-8.92h0c0.34,0,0.68,0.05,1.02,0.06c7.5-12.38,6.12-33.39-0.8-45.59
		c-5.85-10.33-16.61-16.13-27.69-16.13c-1.18,0-2.36,0.08-3.54,0.21l-0.09-6.6l-0.04-2.96c-0.02-1.8-1.49-3.25-3.29-3.25
		c-0.01,0-0.03,0-0.04,0c-1.82,0.02-3.27,1.52-3.25,3.33l0.05,4.08l0.09,6.84c-1.88,0.64-3.74,1.45-5.53,2.47
		c-3.77,2.13-6.93,4.93-9.43,8.15l-6.8-1.8l-3.32-0.88c-1.74-0.46-3.56,0.58-4.02,2.34c-0.46,1.76,0.58,3.56,2.34,4.02l1.77,0.47
		L107.49,57.54z M149.04,57.56c2.07,0,3.74,1.68,3.74,3.74c0,2.07-1.68,3.74-3.74,3.74c-2.07,0-3.74-1.68-3.74-3.74
		C145.3,59.24,146.98,57.56,149.04,57.56z M138.18,83.96c2.07,0,3.74,1.67,3.74,3.74c0,2.07-1.68,3.74-3.74,3.74
		c-2.07,0-3.74-1.68-3.74-3.74C134.43,85.64,136.11,83.96,138.18,83.96z M120.72,70.95c0,2.07-1.68,3.74-3.74,3.74
		c-2.07,0-3.74-1.68-3.74-3.74c0-2.07,1.67-3.74,3.74-3.74C119.05,67.21,120.72,68.88,120.72,70.95z"/>
	<path class="st3" d="M201.35,88.2c-1.39,0.92-2.71,1.99-3.9,3.26c-4.27,4.5-7.67,11.73-8.86,18.9
		c6.62,5.71,11.14,13.57,12.71,22.22c1.12,0.17,2.28,0.25,3.47,0.25c9.04,0,19.51-4.64,25.14-10.56c6.31-6.64,7.72-16.14,4.39-24.08
		l5.7-3.36l0.93-0.55c1.57-0.92,2.09-2.94,1.16-4.51c-0.92-1.56-2.94-2.08-4.51-1.16l-1,0.59l-5.71,3.36
		c-0.56-0.67-1.14-1.32-1.79-1.93c-4.33-4.11-9.87-6.15-15.4-6.14c-2.13,0-4.26,0.31-6.32,0.92l-1.87-5.72
		c-0.06-0.18-0.14-0.34-0.22-0.51c-0.73-1.4-2.38-2.11-3.93-1.6c-1.73,0.56-2.67,2.42-2.11,4.15l0.02,0.06L201.35,88.2z
		 M211.03,97.58c2.07,0,3.74,1.67,3.74,3.74c0,2.07-1.68,3.74-3.74,3.74c-2.07,0-3.74-1.68-3.74-3.74
		C207.28,99.26,208.96,97.58,211.03,97.58z"/>
	<path class="st4" d="M170.76,108.47c-2.4-0.55-4.79-0.82-7.15-0.82c-14.43,0-27.48,9.92-30.86,24.58
		c-3.11,13.47,1.6,47.29,12.11,62.86c3.82-0.95,7.79-1.47,11.88-1.47h0c3.81,0,7.64,0.45,11.37,1.34c0.66,0.16,1.31,0.34,1.95,0.52
		c11.63-12.53,21.71-37.14,24.45-49.02C198.45,129.42,187.81,112.4,170.76,108.47z M149.12,158.4c-2.07,0-3.74-1.68-3.74-3.74
		c0-2.07,1.67-3.74,3.74-3.74c2.07,0,3.74,1.67,3.74,3.74C152.86,156.73,151.18,158.4,149.12,158.4z M159.83,128.18
		c-2.07,0-3.74-1.67-3.74-3.74s1.68-3.74,3.74-3.74c2.07,0,3.74,1.67,3.74,3.74S161.9,128.18,159.83,128.18z M180.72,150.44
		c-2.07,0-3.74-1.67-3.74-3.74c0-2.07,1.68-3.74,3.74-3.74c2.07,0,3.74,1.68,3.74,3.74C184.46,148.77,182.79,150.44,180.72,150.44z"
		/>
	<path class="st4" d="M186.97,274.75c5.27-7.18,9.2-15.09,10.95-22.42c5.42-22.72-8.61-45.54-31.33-50.96
		c-3.3-0.79-6.6-1.16-9.85-1.16c-19.13,0-36.48,13.07-41.11,32.49c-1.61,6.73-1.8,14.73-0.71,22.79l-5.59-3.35
		c-0.44-0.26-0.92-0.4-1.4-0.44c-1.22-0.11-2.44,0.46-3.11,1.57c-0.93,1.56-0.43,3.58,1.13,4.51l2.97,1.78l7.68,4.6
		c4.06,16.05,13.27,30.62,26.84,33.85c1.92,0.46,3.86,0.67,5.81,0.67c11.17,0,22.7-7.09,31.83-16.85l9.29-0.79l2.93-0.25
		c1.81-0.15,3.15-1.75,3-3.56c-0.09-1.01-0.64-1.87-1.42-2.41c-0.61-0.42-1.35-0.66-2.14-0.59L186.97,274.75z M182.08,252.5
		c2.07,0,3.74,1.68,3.74,3.74c0,2.07-1.67,3.74-3.74,3.74c-2.07,0-3.74-1.68-3.74-3.74C178.34,254.17,180.01,252.5,182.08,252.5z
		 M135.65,262.81c-2.07,0-3.74-1.67-3.74-3.74c0-2.07,1.68-3.74,3.74-3.74c2.07,0,3.74,1.68,3.74,3.74
		C139.39,261.13,137.71,262.81,135.65,262.81z M143.13,227.53c-2.07,0-3.74-1.67-3.74-3.74c0-2.07,1.68-3.74,3.74-3.74
		c2.07,0,3.74,1.67,3.74,3.74C146.87,225.86,145.2,227.53,143.13,227.53z M159.51,284.54c-2.07,0-3.74-1.68-3.74-3.74
		c0-2.07,1.67-3.74,3.74-3.74c2.07,0,3.74,1.67,3.74,3.74C163.26,282.87,161.58,284.54,159.51,284.54z M163.26,236.18
		c-2.07,0-3.74-1.68-3.74-3.74c0-2.07,1.67-3.74,3.74-3.74c2.07,0,3.74,1.68,3.74,3.74C167,234.51,165.32,236.18,163.26,236.18z"/>
	<path class="st4" d="M21.29,198.32c0.4,0.21,0.8,0.43,1.22,0.61c3.94,1.73,8.94,2.65,14.03,2.65c5.99,0,12.08-1.28,16.73-3.96
		c-0.27-3.15-0.19-6.35,0.34-9.55c0.81-4.86,2.52-9.42,5-13.52c-3.72-7.62-10.83-14.64-17.62-17.63c-3.01-1.32-6.14-1.95-9.23-1.95
		c-6.51,0-12.79,2.81-17.16,7.73l-4.12-4.99c-0.04-0.04-0.08-0.08-0.12-0.12c-1.18-1.28-3.15-1.45-4.51-0.33
		c-1.4,1.16-1.6,3.23-0.45,4.63l0.9,1.09l4.54,5.51c-0.03,0.07-0.07,0.13-0.11,0.2c-3.98,9.05-1.63,19.26,5.09,25.74l-4.79,4.53
		l-0.74,0.7c-1.32,1.25-1.38,3.33-0.13,4.65c0.65,0.69,1.52,1.03,2.39,1.03c0.81,0,1.62-0.3,2.26-0.9l1.47-1.39L21.29,198.32z
		 M39.61,184.64c2.07,0,3.74,1.67,3.74,3.74c0,2.07-1.67,3.74-3.74,3.74c-2.07,0-3.74-1.68-3.74-3.74
		C35.87,186.31,37.54,184.64,39.61,184.64z M32.88,167.34c2.07,0,3.74,1.68,3.74,3.74c0,2.07-1.67,3.74-3.74,3.74
		c-2.07,0-3.74-1.67-3.74-3.74C29.13,169.02,30.81,167.34,32.88,167.34z"/>
	<path class="st4" d="M20.59,113.77c2.65,0.77,5.65,1.18,8.7,1.18c3.69,0,7.43-0.6,10.68-1.84c1.7-5.33,4.92-10.11,9.3-13.67
		c-1-8.37-8.91-17.57-16.36-20.84c-2.45-1.08-5-1.59-7.51-1.59c-2.31,0-4.57,0.47-6.69,1.29l-2.31-5.67
		c-0.06-0.16-0.15-0.3-0.23-0.44c-0.82-1.37-2.52-1.99-4.06-1.37c-1.68,0.69-2.49,2.6-1.81,4.29l0.11,0.26L13,81.74
		c-1.96,1.73-3.59,3.9-4.71,6.44c-3.58,8.14-0.88,17.44,5.98,22.52l-4.57,4.34c-0.09,0.08-0.12,0.19-0.2,0.28
		c-1.07,1.26-1.09,3.14,0.08,4.37c0.65,0.68,1.52,1.03,2.39,1.03c0.81,0,1.63-0.3,2.26-0.9l1.03-0.97L20.59,113.77z M28.05,87.71
		c2.07,0,3.74,1.67,3.74,3.74s-1.68,3.74-3.74,3.74c-2.07,0-3.74-1.67-3.74-3.74S25.99,87.71,28.05,87.71z"/>
	<path class="st4" d="M301.2,165.18l-4.53-0.54c0.77-0.86,1.49-1.68,2.07-2.42c7.63-9.62,6.01-23.61-3.61-31.23
		c-1.42-1.13-2.94-2.04-4.52-2.77l1.25-6.09c0.03-0.16,0.04-0.32,0.05-0.49c0.09-1.6-0.99-3.07-2.61-3.4
		c-1.46-0.3-2.9,0.44-3.57,1.7c-0.14,0.27-0.26,0.55-0.32,0.86l-1.14,5.58c-0.97-0.13-1.95-0.21-2.93-0.21
		c-6.55,0-13.05,2.89-17.44,8.42c-1.86,2.35-3.83,6.16-5.62,10.68l-4.36-4.6c-0.19-0.2-0.43-0.32-0.66-0.47
		c-1.24-0.78-2.88-0.71-3.99,0.34c-1.32,1.25-1.37,3.33-0.12,4.65l1.54,1.63l5.17,5.45c-2.07,6.86-3.51,14.37-3.55,20.69
		c2.54,1.81,4.9,3.9,6.96,6.33c2.08,2.45,3.76,5.1,5.13,7.86c8.09-1.68,18.67-9.46,26.39-16.59l8.38,1l1.26,0.15
		c0.13,0.02,0.26,0.02,0.39,0.02c1.64,0,3.06-1.23,3.26-2.9c0.09-0.78-0.11-1.52-0.5-2.14C303.07,165.89,302.23,165.3,301.2,165.18z
		 M268.74,163.61c-2.07,0-3.74-1.67-3.74-3.74s1.68-3.74,3.74-3.74c2.07,0,3.74,1.67,3.74,3.74S270.81,163.61,268.74,163.61z
		 M276.22,141.41c-2.07,0-3.74-1.67-3.74-3.74c0-2.07,1.68-3.74,3.74-3.74c2.07,0,3.74,1.68,3.74,3.74
		C279.96,139.74,278.29,141.41,276.22,141.41z M296.05,150.45c0,2.07-1.68,3.74-3.74,3.74c-2.07,0-3.74-1.68-3.74-3.74
		c0-2.07,1.68-3.74,3.74-3.74C294.37,146.71,296.05,148.39,296.05,150.45z"/>
	<path class="st4" d="M165.78,28.29c-1.46,5.02-2.57,10.34-3.04,15.25c2.65,2.54,4.97,5.47,6.82,8.75
		c1.68,2.97,3.08,6.43,4.17,10.17c8.62-1.35,20.46-10.27,28.5-17.95c0.13,0,0.27-0.01,0.41-0.03l10.01-1.34l3.61-0.48
		c1.8-0.24,3.07-1.9,2.83-3.7c-0.15-1.13-0.86-2.05-1.82-2.51c-0.56-0.28-1.21-0.4-1.88-0.31l-6.18,0.83
		c5.48-7.21,5.9-16.73,1.75-24.22l4.88-4.62l0.18-0.17c1.32-1.25,1.38-3.33,0.13-4.65c-1.18-1.25-3.08-1.32-4.4-0.28
		c-0.08,0.06-0.17,0.09-0.25,0.16l-4.57,4.33c-0.5-0.48-1.03-0.95-1.59-1.39c-4.09-3.24-8.96-4.81-13.8-4.81
		c-6.55,0-13.05,2.89-17.44,8.42c-2.02,2.55-4.17,6.81-6.06,11.84l-3.4-2.9c-0.65-0.55-1.45-0.8-2.25-0.77
		c-0.89,0.03-1.77,0.41-2.39,1.15c-1.17,1.37-1.01,3.42,0.34,4.6c0.01,0.01,0.02,0.03,0.04,0.04L165.78,28.29z M190.58,12.57
		c2.07,0,3.74,1.67,3.74,3.74c0,2.07-1.68,3.74-3.74,3.74c-2.07,0-3.74-1.68-3.74-3.74C186.84,14.24,188.51,12.57,190.58,12.57z
		 M183.09,40.27c2.07,0,3.74,1.67,3.74,3.74s-1.67,3.74-3.74,3.74c-2.07,0-3.74-1.67-3.74-3.74S181.03,40.27,183.09,40.27z"/>
</g>
</svg>
