<svg width="1307" height="417" xmlns="http://www.w3.org/2000/svg" xmlns:xlink="http://www.w3.org/1999/xlink" overflow="hidden"><defs><clipPath id="clip0"><rect x="-64" y="29" width="1307" height="417"/></clipPath></defs><g clip-path="url(#clip0)" transform="translate(64 -29)"><rect x="186.5" y="30.5001" width="1055" height="228" stroke="#7F7F7F" stroke-width="1.33333" stroke-miterlimit="8" stroke-dasharray="5.33333 4" fill="#FFFFFF"/><text font-family="Arial,Arial_MSFontService,sans-serif" font-weight="400" font-size="19" transform="translate(601.39 53)">started by docker-<tspan x="148.833" y="0">compose</tspan></text><rect x="849.5" y="63.5001" width="376" height="183" stroke="#7F7F7F" stroke-width="1.33333" stroke-miterlimit="8" fill="#FFFFFF"/><text font-family="Arial,Arial_MSFontService,sans-serif" font-weight="400" font-size="19" transform="translate(956.075 86)">indy_pool<tspan x="84.8333" y="0">container</tspan></text><rect x="1063.5" y="111.5" width="140" height="40" stroke="#7F7F7F" stroke-width="1.33333" stroke-miterlimit="8" fill="#FFFFFF"/><text font-family="Arial,Arial_MSFontService,sans-serif" font-weight="400" font-size="19" transform="translate(1092.39 138)">indy<tspan x="34.1667" y="0">-</tspan><tspan x="40.3334" y="0">node</tspan></text><rect x="1063.5" y="179.5" width="140" height="40" stroke="#7F7F7F" stroke-width="1.33333" stroke-miterlimit="8" fill="#FFFFFF"/><text font-family="Arial,Arial_MSFontService,sans-serif" font-weight="400" font-size="19" transform="translate(1092.39 206)">indy<tspan x="34.1667" y="0">-</tspan><tspan x="40.3334" y="0">node</tspan></text><rect x="868.5" y="211.5" width="41" height="121" stroke="#7F7F7F" stroke-width="1.33333" stroke-miterlimit="8" fill="#FFFFFF"/><text font-family="Arial,Arial_MSFontService,sans-serif" font-weight="400" font-size="19" transform="matrix(-1.83697e-16 -1 1 -1.83697e-16 895.431 315)">9701:9701</text><rect x="946.5" y="211.5" width="40" height="121" stroke="#7F7F7F" stroke-width="1.33333" stroke-miterlimit="8" fill="#FFFFFF"/><text font-family="Arial,Arial_MSFontService,sans-serif" font-weight="400" font-size="19" transform="matrix(-1.83697e-16 -1 1 -1.83697e-16 972.858 315)">9708:9708</text><rect x="470.5" y="63.5001" width="345" height="183" stroke="#7F7F7F" stroke-width="1.33333" stroke-miterlimit="8" fill="#FFFFFF"/><text font-family="Arial,Arial_MSFontService,sans-serif" font-weight="400" font-size="19" transform="translate(566.636 86)">validator<tspan x="75.5" y="0">container</tspan></text><rect x="581.5" y="106.5" width="225" height="75" stroke="#7F7F7F" stroke-width="1.33333" stroke-miterlimit="8" fill="#FFFFFF"/><text font-family="Arial,Arial_MSFontService,sans-serif" font-weight="400" font-size="19" transform="translate(598.334 139)">Validator code (python)<tspan x="34.22" y="23">+</tspan><tspan x="50.22" y="23">python3</tspan><tspan x="116.387" y="23">-</tspan><tspan x="122.553" y="23">indy</tspan></text><rect x="624.5" y="202.5" width="140" height="40" stroke="#7F7F7F" stroke-width="1.33333" stroke-miterlimit="8" fill="#FFFFFF"/><text font-family="Arial,Arial_MSFontService,sans-serif" font-weight="400" font-size="19" transform="translate(655.667 229)">libindy.so</text><rect x="503.5" y="211.5" width="40" height="139" stroke="#7F7F7F" stroke-width="1.33333" stroke-miterlimit="8" fill="#FFFFFF"/><text font-family="Arial,Arial_MSFontService,sans-serif" font-weight="400" font-size="19" transform="matrix(-1.83697e-16 -1 1 -1.83697e-16 529.534 324)">8000:8000</text><rect x="206.5" y="65.5001" width="231" height="183" stroke="#7F7F7F" stroke-width="1.33333" stroke-miterlimit="8" fill="#FFFFFF"/><text font-family="Arial,Arial_MSFontService,sans-serif" font-weight="400" font-size="19" transform="translate(258.153 88)">nginx<tspan x="49.6667" y="0">container</tspan></text><rect x="319.5" y="108.5" width="88" height="75" stroke="#7F7F7F" stroke-width="1.33333" stroke-miterlimit="8" fill="#FFFFFF"/><text font-family="Arial,Arial_MSFontService,sans-serif" font-weight="400" font-size="19" transform="translate(341.007 152)">ngin<tspan x="35.1667" y="0">x</tspan></text><rect x="232.5" y="211.5" width="41" height="139" stroke="#7F7F7F" stroke-width="1.33333" stroke-miterlimit="8" fill="#FFFFFF"/><text font-family="Arial,Arial_MSFontService,sans-serif" font-weight="400" font-size="19" transform="matrix(-1.83697e-16 -1 1 -1.83697e-16 259.157 319)">10080:80</text><path d="M1133.5 151.5 1133.5 177.682" stroke="#7F7F7F" stroke-width="2.66667" stroke-miterlimit="8" stroke-dasharray="2.66667 2.66667" fill="none" fill-rule="evenodd"/><path d="M909.5 271.5 946.607 271.5" stroke="#7F7F7F" stroke-width="2.66667" stroke-miterlimit="8" stroke-dasharray="2.66667 2.66667" fill="none" fill-rule="evenodd"/><path d="M972.168 207.765 974.773 206.672 979.182 205.664 984.443 204.662 990.327 203.723 996.898 202.847 1004.03 202.096 1011.6 201.346 1019.66 200.72 1028.11 200.158 1045.68 199.407 1057.14 199.249 1057.15 199.916 1045.69 200.074 1045.7 200.073 1028.14 200.823 1028.15 200.823 1019.71 201.386 1019.71 201.385 1011.65 202.01 1011.66 202.01 1004.1 202.76 1004.1 202.759 996.972 203.509 996.982 203.508 990.419 204.383 990.428 204.382 984.553 205.32 984.562 205.318 979.312 206.318 979.324 206.315 974.949 207.315 975.004 207.298 972.426 208.38ZM975.432 210.892 966.5 211.365 971.48 203.936ZM1055.76 195.601 1063.81 199.49 1055.87 203.6Z" fill="#7F7F7F"/><path d="M890.145 204.545 891.436 199.928 893.141 196.203 895.281 192.488 897.861 188.839 900.876 185.258 904.267 181.679 908.094 178.229 912.234 174.778 921.569 168.2 932.216 161.937 943.986 156.115 956.755 150.732 970.46 145.914 984.914 141.596 999.993 138.029 1015.63 135.089 1031.59 132.962 1047.86 131.585 1057.58 131.326 1057.59 131.992 1047.88 132.251 1047.9 132.25 1031.65 133.625 1031.67 133.624 1015.73 135.749 1015.75 135.746 1000.12 138.683 1000.14 138.68 985.077 142.243 985.095 142.238 970.658 146.55 970.673 146.545 956.986 151.358 957.005 151.35 944.255 156.725 944.273 156.717 932.523 162.529 932.544 162.518 921.919 168.768 921.942 168.753 912.63 175.316 912.651 175.299 908.526 178.737 908.536 178.728 904.723 182.166 904.742 182.147 901.367 185.71 901.38 185.695 898.38 189.258 898.397 189.236 895.835 192.861 895.851 192.835 893.726 196.522 893.741 196.494 892.053 200.182 892.071 200.133 890.787 204.724ZM894.617 203.895 889.5 211.231 886.702 202.735ZM1056.15 127.696 1064.25 131.481 1056.36 135.693Z" fill="#7F7F7F"/><path d="M694.833 188.167 694.833 191.125 694.833 191.75 694.833 192 694.833 192.25 694.833 192.875 694.833 195.833 694.167 195.833 694.167 192.875 694.167 192.25 694.167 192 694.167 191.75 694.167 191.125 694.167 188.167ZM690.5 189.5 694.5 181.5 698.5 189.5ZM698.5 194.5 694.5 202.5 690.5 194.5Z" fill="#7F7F7F"/><path d="M523.653 203.972 524.485 198.04 526.056 191.881 528.254 185.854 530.89 180.017 534.029 174.429 537.607 169.156 541.561 164.26 545.893 159.678 550.478 155.595 555.378 152.015 560.468 148.936 565.688 146.483 571.105 144.656 575.441 143.887 575.557 144.543 571.246 145.308 571.294 145.296 565.919 147.108 565.954 147.094 560.767 149.532 560.798 149.515 555.735 152.578 555.759 152.562 550.884 156.124 550.909 156.104 546.347 160.166 546.367 160.146 542.055 164.709 542.072 164.689 538.134 169.564 538.151 169.542 534.588 174.792 534.603 174.768 531.478 180.331 531.491 180.305 528.866 186.117 528.876 186.094 526.688 192.094 526.698 192.062 525.136 198.187 525.143 198.151 524.313 204.065ZM528.069 202.978 523.5 210.667 520.09 202.399ZM573.733 140.386 582.125 143.48 574.615 148.338Z" fill="#7F7F7F"/><path d="M252.778 204.775 253.675 199.266 255.499 193.291 257.949 187.449 260.963 181.796 264.543 176.395 268.624 171.31 273.143 166.54 278.101 162.147 283.31 158.193 288.898 154.677 294.675 151.725 300.705 149.339 306.804 147.578 312.682 146.694 312.781 147.353 306.925 148.234 306.967 148.225 300.905 149.975 300.935 149.964 294.935 152.339 294.964 152.326 289.214 155.264 289.24 155.249 283.678 158.749 283.702 158.733 278.514 162.67 278.534 162.654 273.596 167.029 273.617 167.009 269.117 171.759 269.135 171.738 265.072 176.801 265.09 176.776 261.528 182.151 261.544 182.124 258.544 187.749 258.557 187.721 256.12 193.533 256.131 193.502 254.319 199.439 254.329 199.396 253.436 204.882ZM257.212 203.864 252.5 211.467 249.245 203.136ZM311.069 143.149 319.375 146.467 311.737 151.121Z" fill="#7F7F7F"/><path d="M333.5 394.5 1225.04 394.5" stroke="#7F7F7F" stroke-width="0.666667" stroke-miterlimit="8" fill="none" fill-rule="evenodd"/><path d="M720.729 249.168 720.708 253.004 720.646 256.444 720.646 256.438 720.646 260.251 720.583 268.877 720.583 268.875 720.583 278.501 720.521 288.752 720.521 288.75 720.521 299.375 720.519 299.344 721.019 304.656 721.01 304.604 722.385 309.917 722.367 309.864 724.68 315.052 724.66 315.015 727.723 320.078 727.7 320.045 731.513 324.92 731.492 324.896 735.992 329.646 735.968 329.623 741.093 334.061 741.071 334.043 746.758 338.168 746.737 338.154 752.925 341.966 752.905 341.955 759.467 345.392 759.446 345.382 766.446 348.445 766.424 348.436 773.674 350.998 773.65 350.991 781.213 353.053 781.191 353.048 788.879 354.611 788.852 354.607 796.727 355.544 796.701 355.542 804.576 355.854 804.551 355.854 820.301 355.292 820.28 355.293 835.53 353.793 835.508 353.796 849.758 351.421 849.741 351.424 856.304 349.987 856.29 349.99 862.478 348.365 862.465 348.369 868.152 346.619 868.135 346.625 873.26 344.75 873.24 344.758 877.74 342.758 877.716 342.769 881.529 340.707 881.469 340.748 885.148 337.565 885.584 338.069 881.878 341.276 878.022 343.362 873.5 345.372 868.356 347.254 862.654 349.008 856.453 350.637 849.876 352.077 835.606 354.456 820.335 355.958 804.562 356.521 796.661 356.208 788.76 355.267 781.048 353.7 773.463 351.631 766.19 349.06 759.168 345.988 752.585 342.54 746.377 338.715 740.668 334.574 735.519 330.116 730.997 325.343 727.163 320.44 724.079 315.342 721.747 310.11 720.358 304.745 719.854 299.391 719.854 288.749 719.917 278.498 719.917 278.5 719.917 268.874 719.979 260.248 719.979 260.25 719.979 256.435 720.042 252.994 720.042 252.998 720.063 249.164ZM716.376 250.437 720.5 242.5 724.375 250.562ZM881.274 336.8 888.938 332.188 888.03 341.086Z" fill="#7F7F7F"/><path d="M673.288 249.13 673.396 250.858 673.521 254.241 673.583 258.12 673.583 258.115 673.708 262.368 673.833 271.996 673.958 282.746 674.083 294.248 674.083 306.125 674.083 306.104 674.27 309.104 674.264 309.056 674.889 311.993 674.877 311.951 675.939 314.951 675.924 314.916 677.362 317.854 677.339 317.813 681.276 323.626 681.244 323.585 686.556 329.273 686.525 329.244 693.15 334.744 693.123 334.723 700.936 339.973 700.912 339.959 709.787 344.896 709.769 344.887 719.581 349.574 719.561 349.565 730.248 353.815 730.232 353.809 741.669 357.684 741.652 357.679 753.715 361.054 753.699 361.05 766.324 363.925 766.308 363.922 779.371 366.234 779.356 366.232 792.731 367.982 792.714 367.98 806.276 369.043 806.259 369.042 819.947 369.417 819.933 369.417 833.62 369.229 833.61 369.23 847.172 368.605 847.161 368.605 860.536 367.543 860.528 367.544 873.59 366.169 873.581 366.17 886.143 364.482 886.133 364.484 898.258 362.484 898.248 362.485 909.686 360.235 909.672 360.238 920.36 357.676 920.348 357.679 930.16 354.929 930.145 354.934 939.02 351.996 939.003 352.002 946.816 348.94 946.791 348.951 953.416 345.701 953.384 345.719 958.696 342.344 958.636 342.393 962.951 337.941 963.429 338.405 959.087 342.885 953.726 346.291 947.072 349.555 939.238 352.626 930.347 355.569 920.521 358.323 909.821 360.888 898.372 363.141 886.237 365.142 873.665 366.831 860.593 368.207 847.208 369.27 833.635 369.896 819.935 370.083 806.232 369.708 792.653 368.644 779.262 366.892 766.184 364.577 753.543 361.698 741.464 358.319 730.01 354.438 719.304 350.181 709.472 345.484 700.576 340.535 692.738 335.267 686.083 329.743 680.739 324.021 676.773 318.168 675.317 315.192 674.241 312.153 673.606 309.17 673.417 306.135 673.417 294.25 673.417 294.254 673.292 282.754 673.167 272.004 673.042 262.379 673.042 262.385 672.917 258.133 672.854 254.255 672.854 254.262 672.729 250.887 672.73 250.896 672.622 249.172ZM669.055 250.754 672.5 242.5 677.036 250.209ZM959.011 337.609 966.125 332.188 966.194 341.132Z" fill="#7F7F7F"/><path d="M6.6727-0.175092 18.454 0.104464 36.7196 1.48064 54.7346 3.60741 72.3117 6.54736 89.327 10.1131 105.593 14.4297 120.983 19.2471 135.375 24.6285 148.644 30.4494 160.6 36.7091 166.052 39.9674 171.128 43.289 175.767 46.7365 180.03 50.185 183.923 53.7635 187.252 57.3438 190.208 60.9917 192.601 64.7069 194.555 68.427 195.946 72.2188 196.768 75.9501 197.084 79.7438 196.395 94.6542 194.516 109.119 191.636 122.581 189.818 128.851 187.812 134.68 185.617 140.073 183.296 144.904 180.844 149.242 178.26 152.834 175.588 155.824 173.395 157.104 173.059 156.528 175.207 155.275 175.126 155.34 177.751 152.403 177.729 152.43 180.292 148.868 180.272 148.898 182.71 144.586 182.7 144.606 185.012 139.793 185.004 139.812 187.191 134.437 187.185 134.454 189.185 128.642 189.18 128.657 190.992 122.407 190.987 122.43 193.862 108.993 193.857 109.02 195.732 94.5821 195.73 94.6096 196.417 79.7346 196.418 79.7777 196.105 76.0277 196.112 76.0717 195.299 72.3842 195.312 72.4272 193.937 68.6772 193.955 68.7175 192.017 65.03 192.032 65.0555 189.657 61.368 189.679 61.3974 186.741 57.7724 186.756 57.7895 183.443 54.227 183.462 54.2454 179.587 50.6829 179.603 50.6967 175.353 47.2592 175.364 47.2675 170.739 43.83 170.755 43.8414 165.692 40.5289 165.704 40.5361 160.266 37.2861 160.283 37.2953 148.345 31.0453 148.366 31.0553 135.116 25.2428 135.133 25.2497 120.758 19.8747 120.775 19.8806 105.4 15.0681 105.414 15.0722 89.1645 10.7597 89.1816 10.7637 72.1816 7.20125 72.195 7.20377 54.6325 4.26627 54.6484 4.26853 36.6484 2.14353 36.6625 2.14489 18.4125 0.769891 18.4296 0.770739 6.65688 0.491387ZM7.90286 4.18865 0 0 8.09264-3.8091ZM176.058 159.94 167.125 159.5 172.837 152.617Z" fill="#7F7F7F" transform="matrix(-4.37114e-08 1 1 4.37114e-08 363.5 183.5)"/><text font-family="Arial,Arial_MSFontService,sans-serif" font-weight="400" font-size="16" transform="translate(986.819 413)">indy_net<tspan x="64.6666" y="0">(docker bridge network)</tspan><tspan x="67.3334" y="19">172.16.0.0/1</tspan><tspan x="156" y="19">6</tspan></text><path d="M363.5 248.5 363.5 394.716" stroke="#7F7F7F" stroke-width="0.666667" stroke-miterlimit="8" fill="none" fill-rule="evenodd"/><path d="M643.5 246.5 643.5 394.916" stroke="#7F7F7F" stroke-width="0.666667" stroke-miterlimit="8" fill="none" fill-rule="evenodd"/><path d="M0 0 0.000104987 146.216" stroke="#7F7F7F" stroke-width="0.666667" stroke-miterlimit="8" fill="none" fill-rule="evenodd" transform="matrix(-1 -8.74228e-08 -8.74228e-08 1 1037.5 246.5)"/><path d="M18.5001 394.5 299.313 394.5" stroke="#7F7F7F" stroke-width="0.666667" stroke-miterlimit="8" fill="none" fill-rule="evenodd"/><text font-family="Arial,Arial_MSFontService,sans-serif" font-weight="400" font-size="16" transform="translate(51.4812 415)">Other (e.g. host) network</text><path d="M282.5 248.5 282.5 394.716" stroke="#7F7F7F" stroke-width="0.666667" stroke-miterlimit="8" fill="none" fill-rule="evenodd"/><rect x="-62.5001" y="65.5001" width="231" height="183" stroke="#7F7F7F" stroke-width="1.33333" stroke-miterlimit="8" fill="#FFFFFF"/><text font-family="Arial,Arial_MSFontService,sans-serif" font-weight="400" font-size="19" transform="translate(0.275119 88)">Cactus node</text><rect x="69.5001" y="108.5" width="88" height="75" stroke="#7F7F7F" stroke-width="1.33333" stroke-miterlimit="8" fill="#FFFFFF"/><text font-family="Arial,Arial_MSFontService,sans-serif" font-weight="400" font-size="19" transform="translate(84.7039 152)">verifier</text><rect x="-49.5001" y="164.5" width="88.0001" height="76" stroke="#7F7F7F" stroke-width="1.33333" stroke-miterlimit="8" fill="#FFFFFF"/><text font-family="Arial,Arial_MSFontService,sans-serif" font-weight="400" font-size="19" transform="translate(-23.9662 209)">BLP</text><path d="M-1.43805 159.886 0.754749 158.035 4.17931 156.386 8.2016 154.815 12.7806 153.372 17.7938 151.994 23.305 150.741 29.1932 149.551 41.8367 147.736 55.4177 146.547 62.7011 146.318 62.722 146.984 55.4479 147.213 55.4665 147.212 41.904 148.399 41.9223 148.397 29.2973 150.21 29.316 150.206 23.441 151.394 23.4488 151.392 17.9488 152.642 17.9633 152.638 12.9633 154.013 12.9751 154.01 8.41262 155.448 8.43373 155.44 4.43373 157.003 4.45705 156.992 1.08205 158.617 1.15245 158.572-1.00804 160.395ZM2.70068 161.684-5.50005 165.255-3.43597 156.552ZM61.2534 142.695 69.3749 146.442 61.5044 150.691Z" fill="#7F7F7F"/><path d="M6.67213-0.19536 18.1395 0.0418946 36.0911 1.23033 53.7921 3.10676 71.0558 5.6713 87.7562 8.86127 103.77 12.552 118.91 16.8062 133.051 21.499 146.069 26.6312 157.836 32.1391 163.162 34.9589 168.176 37.9044 172.751 40.9126 176.954 43.9236 180.721 47.063 184.051 50.2043 186.947 53.4149 189.28 56.6308 191.174 59.9137 192.567 63.2072 193.392 66.5691 193.709 69.8662 193.145 82.9668 191.453 95.621 188.823 107.394 187.256 112.912 185.5 118.055 183.554 122.762 181.481 127.033 179.28 130.744 177.011 133.959 174.641 136.584 173.309 137.227 173.02 136.627 174.293 136.012 174.19 136.089 176.503 133.527 176.478 133.558 178.728 130.37 178.713 130.392 180.901 126.705 180.888 126.729 182.95 122.479 182.942 122.498 184.879 117.81 184.872 117.83 186.622 112.705 186.617 112.721 188.179 107.221 188.175 107.24 190.8 95.4898 190.795 95.5183 192.482 82.8933 192.479 82.9232 193.042 69.8607 193.043 69.9069 192.731 66.6569 192.739 66.7044 191.926 63.3919 191.943 63.4424 190.568 60.1924 190.586 60.2291 188.711 56.9791 188.73 57.0082 186.418 53.8207 186.44 53.8483 183.565 50.6608 183.584 50.68 180.271 47.555 180.287 47.5686 176.537 44.4436 176.556 44.4585 172.368 41.4585 172.379 41.466 167.817 38.466 167.831 38.4749 162.831 35.5374 162.844 35.5446 157.532 32.7321 157.546 32.7394 145.796 27.2394 145.815 27.2476 132.815 22.1226 132.833 22.1289 118.708 17.4414 118.722 17.4459 103.597 13.1959 103.613 13.1998 87.6126 9.51232 87.625 9.51491 70.9375 6.32741 70.951 6.32972 53.701 3.76722 53.7149 3.76898 36.0274 1.89398 36.0405 1.89511 18.103 0.707605 18.1181 0.708262 6.65834 0.471164ZM7.91555 4.16463 0 0 8.08103-3.83366ZM176.066 139.986 167.125 139.75 172.679 132.739Z" fill="#7F7F7F" transform="matrix(-4.37114e-08 1 1 4.37114e-08 113.5 183.5)"/></g></svg>