<svg width="710" height="274" xmlns="http://www.w3.org/2000/svg" xmlns:xlink="http://www.w3.org/1999/xlink" overflow="hidden"><defs><clipPath id="clip0"><rect x="135" y="163" width="710" height="274"/></clipPath><linearGradient x1="629.277" y1="394.5" x2="629.277" y2="394.5" gradientUnits="userSpaceOnUse" spreadMethod="reflect" id="fill1"><stop offset="0" stop-color="#FFFFFF"/><stop offset="0.0181818" stop-color="#FEFEFE"/><stop offset="0.0363636" stop-color="#FEFEFE"/><stop offset="0.0545455" stop-color="#FEFEFE"/><stop offset="0.0727273" stop-color="#FEFEFE"/><stop offset="0.0909091" stop-color="#FEFEFE"/><stop offset="0.109091" stop-color="#FEFEFE"/><stop offset="0.127273" stop-color="#FDFDFD"/><stop offset="0.145455" stop-color="#FDFDFD"/><stop offset="0.163636" stop-color="#FDFDFD"/><stop offset="0.181818" stop-color="#FCFCFC"/><stop offset="0.2" stop-color="#FCFCFC"/><stop offset="0.218182" stop-color="#FBFBFB"/><stop offset="0.236364" stop-color="#FBFBFB"/><stop offset="0.254545" stop-color="#FAFAFA"/><stop offset="0.272727" stop-color="#FAFAFA"/><stop offset="0.290909" stop-color="#F9F9F9"/><stop offset="0.309091" stop-color="#F9F9F8"/><stop offset="0.327273" stop-color="#F8F8F8"/><stop offset="0.345455" stop-color="#F7F7F7"/><stop offset="0.363636" stop-color="#F7F7F6"/><stop offset="0.381818" stop-color="#F6F6F5"/><stop offset="0.4" stop-color="#F5F5F4"/><stop offset="0.418182" stop-color="#F4F4F4"/><stop offset="0.436364" stop-color="#F3F3F3"/><stop offset="0.454545" stop-color="#F2F2F2"/><stop offset="0.472727" stop-color="#F1F1F1"/><stop offset="0.490909" stop-color="#F1F1F0"/><stop offset="0.509091" stop-color="#F0F0EF"/><stop offset="0.527273" stop-color="#EFEFEE"/><stop offset="0.545455" stop-color="#EDEDED"/><stop offset="0.563636" stop-color="#ECECEB"/><stop offset="0.581818" stop-color="#EBEBEA"/><stop offset="0.6" stop-color="#EAEAE9"/><stop offset="0.618182" stop-color="#E9E9E8"/><stop offset="0.636364" stop-color="#E8E8E7"/><stop offset="0.654545" stop-color="#E7E7E5"/><stop offset="0.672727" stop-color="#E5E5E4"/><stop offset="0.690909" stop-color="#E4E4E3"/><stop offset="0.709091" stop-color="#E3E3E1"/><stop offset="0.727273" stop-color="#E1E1E0"/><stop offset="0.745455" stop-color="#E0E0DE"/><stop offset="0.763636" stop-color="#DFDFDD"/><stop offset="0.781818" stop-color="#DDDDDB"/><stop offset="0.8" stop-color="#DCDCDA"/><stop offset="0.818182" stop-color="#DADAD8"/><stop offset="0.836364" stop-color="#D9D9D6"/><stop offset="0.854545" stop-color="#D7D7D5"/><stop offset="0.872727" stop-color="#D5D5D3"/><stop offset="0.890909" stop-color="#D4D4D1"/><stop offset="0.909091" stop-color="#D2D2D0"/><stop offset="0.927273" stop-color="#D0D0CE"/><stop offset="0.945455" stop-color="#CFCFCC"/><stop offset="0.963636" stop-color="#CDCDCA"/><stop offset="0.981818" stop-color="#CBCBC8"/><stop offset="1" stop-color="#CACAC7"/></linearGradient><linearGradient x1="281.675" y1="394.5" x2="281.675" y2="394.5" gradientUnits="userSpaceOnUse" spreadMethod="reflect" id="fill2"><stop offset="0" stop-color="#FFFFFF"/><stop offset="0.0181818" stop-color="#FEFEFE"/><stop offset="0.0363636" stop-color="#FEFEFE"/><stop offset="0.0545455" stop-color="#FEFEFE"/><stop offset="0.0727273" stop-color="#FEFEFE"/><stop offset="0.0909091" stop-color="#FEFEFE"/><stop offset="0.109091" stop-color="#FEFEFE"/><stop offset="0.127273" stop-color="#FDFDFD"/><stop offset="0.145455" stop-color="#FDFDFD"/><stop offset="0.163636" stop-color="#FDFDFD"/><stop offset="0.181818" stop-color="#FCFCFC"/><stop offset="0.2" stop-color="#FCFCFC"/><stop offset="0.218182" stop-color="#FBFBFB"/><stop offset="0.236364" stop-color="#FBFBFB"/><stop offset="0.254545" stop-color="#FAFAFA"/><stop offset="0.272727" stop-color="#FAFAFA"/><stop offset="0.290909" stop-color="#F9F9F9"/><stop offset="0.309091" stop-color="#F9F9F8"/><stop offset="0.327273" stop-color="#F8F8F8"/><stop offset="0.345455" stop-color="#F7F7F7"/><stop offset="0.363636" stop-color="#F7F7F6"/><stop offset="0.381818" stop-color="#F6F6F5"/><stop offset="0.4" stop-color="#F5F5F4"/><stop offset="0.418182" stop-color="#F4F4F4"/><stop offset="0.436364" stop-color="#F3F3F3"/><stop offset="0.454545" stop-color="#F2F2F2"/><stop offset="0.472727" stop-color="#F1F1F1"/><stop offset="0.490909" stop-color="#F1F1F0"/><stop offset="0.509091" stop-color="#F0F0EF"/><stop offset="0.527273" stop-color="#EFEFEE"/><stop offset="0.545455" stop-color="#EDEDED"/><stop offset="0.563636" stop-color="#ECECEB"/><stop offset="0.581818" stop-color="#EBEBEA"/><stop offset="0.6" stop-color="#EAEAE9"/><stop offset="0.618182" stop-color="#E9E9E8"/><stop offset="0.636364" stop-color="#E8E8E7"/><stop offset="0.654545" stop-color="#E7E7E5"/><stop offset="0.672727" stop-color="#E5E5E4"/><stop offset="0.690909" stop-color="#E4E4E3"/><stop offset="0.709091" stop-color="#E3E3E1"/><stop offset="0.727273" stop-color="#E1E1E0"/><stop offset="0.745455" stop-color="#E0E0DE"/><stop offset="0.763636" stop-color="#DFDFDD"/><stop offset="0.781818" stop-color="#DDDDDB"/><stop offset="0.8" stop-color="#DCDCDA"/><stop offset="0.818182" stop-color="#DADAD8"/><stop offset="0.836364" stop-color="#D9D9D6"/><stop offset="0.854545" stop-color="#D7D7D5"/><stop offset="0.872727" stop-color="#D5D5D3"/><stop offset="0.890909" stop-color="#D4D4D1"/><stop offset="0.909091" stop-color="#D2D2D0"/><stop offset="0.927273" stop-color="#D0D0CE"/><stop offset="0.945455" stop-color="#CFCFCC"/><stop offset="0.963636" stop-color="#CDCDCA"/><stop offset="0.981818" stop-color="#CBCBC8"/><stop offset="1" stop-color="#CACAC7"/></linearGradient><linearGradient x1="5.24934e-05" y1="96.4704" x2="5.24934e-05" y2="0" gradientUnits="userSpaceOnUse" spreadMethod="reflect" id="fill3"><stop offset="0" stop-color="#FFFFFF"/><stop offset="0.0181818" stop-color="#FEFEFE"/><stop offset="0.0363636" stop-color="#FEFEFE"/><stop offset="0.0545455" stop-color="#FEFEFE"/><stop offset="0.0727273" stop-color="#FEFEFE"/><stop offset="0.0909091" stop-color="#FEFEFE"/><stop offset="0.109091" stop-color="#FEFEFE"/><stop offset="0.127273" stop-color="#FDFDFD"/><stop offset="0.145455" stop-color="#FDFDFD"/><stop offset="0.163636" stop-color="#FDFDFD"/><stop offset="0.181818" stop-color="#FCFCFC"/><stop offset="0.2" stop-color="#FCFCFC"/><stop offset="0.218182" stop-color="#FBFBFB"/><stop offset="0.236364" stop-color="#FBFBFB"/><stop offset="0.254545" stop-color="#FAFAFA"/><stop offset="0.272727" stop-color="#FAFAFA"/><stop offset="0.290909" stop-color="#F9F9F9"/><stop offset="0.309091" stop-color="#F9F9F8"/><stop offset="0.327273" stop-color="#F8F8F8"/><stop offset="0.345455" stop-color="#F7F7F7"/><stop offset="0.363636" stop-color="#F7F7F6"/><stop offset="0.381818" stop-color="#F6F6F5"/><stop offset="0.4" stop-color="#F5F5F4"/><stop offset="0.418182" stop-color="#F4F4F4"/><stop offset="0.436364" stop-color="#F3F3F3"/><stop offset="0.454545" stop-color="#F2F2F2"/><stop offset="0.472727" stop-color="#F1F1F1"/><stop offset="0.490909" stop-color="#F1F1F0"/><stop offset="0.509091" stop-color="#F0F0EF"/><stop offset="0.527273" stop-color="#EFEFEE"/><stop offset="0.545455" stop-color="#EDEDED"/><stop offset="0.563636" stop-color="#ECECEB"/><stop offset="0.581818" stop-color="#EBEBEA"/><stop offset="0.6" stop-color="#EAEAE9"/><stop offset="0.618182" stop-color="#E9E9E8"/><stop offset="0.636364" stop-color="#E8E8E7"/><stop offset="0.654545" stop-color="#E7E7E5"/><stop offset="0.672727" stop-color="#E5E5E4"/><stop offset="0.690909" stop-color="#E4E4E3"/><stop offset="0.709091" stop-color="#E3E3E1"/><stop offset="0.727273" stop-color="#E1E1E0"/><stop offset="0.745455" stop-color="#E0E0DE"/><stop offset="0.763636" stop-color="#DFDFDD"/><stop offset="0.781818" stop-color="#DDDDDB"/><stop offset="0.8" stop-color="#DCDCDA"/><stop offset="0.818182" stop-color="#DADAD8"/><stop offset="0.836364" stop-color="#D9D9D6"/><stop offset="0.854545" stop-color="#D7D7D5"/><stop offset="0.872727" stop-color="#D5D5D3"/><stop offset="0.890909" stop-color="#D4D4D1"/><stop offset="0.909091" stop-color="#D2D2D0"/><stop offset="0.927273" stop-color="#D0D0CE"/><stop offset="0.945455" stop-color="#CFCFCC"/><stop offset="0.963636" stop-color="#CDCDCA"/><stop offset="0.981818" stop-color="#CBCBC8"/><stop offset="1" stop-color="#CACAC7"/></linearGradient><linearGradient x1="5.24934e-05" y1="96.4704" x2="5.24934e-05" y2="0" gradientUnits="userSpaceOnUse" spreadMethod="reflect" id="fill4"><stop offset="0" stop-color="#FFFFFF"/><stop offset="0.0181818" stop-color="#FEFEFE"/><stop offset="0.0363636" stop-color="#FEFEFE"/><stop offset="0.0545455" stop-color="#FEFEFE"/><stop offset="0.0727273" stop-color="#FEFEFE"/><stop offset="0.0909091" stop-color="#FEFEFE"/><stop offset="0.109091" stop-color="#FEFEFE"/><stop offset="0.127273" stop-color="#FDFDFD"/><stop offset="0.145455" stop-color="#FDFDFD"/><stop offset="0.163636" stop-color="#FDFDFD"/><stop offset="0.181818" stop-color="#FCFCFC"/><stop offset="0.2" stop-color="#FCFCFC"/><stop offset="0.218182" stop-color="#FBFBFB"/><stop offset="0.236364" stop-color="#FBFBFB"/><stop offset="0.254545" stop-color="#FAFAFA"/><stop offset="0.272727" stop-color="#FAFAFA"/><stop offset="0.290909" stop-color="#F9F9F9"/><stop offset="0.309091" stop-color="#F9F9F8"/><stop offset="0.327273" stop-color="#F8F8F8"/><stop offset="0.345455" stop-color="#F7F7F7"/><stop offset="0.363636" stop-color="#F7F7F6"/><stop offset="0.381818" stop-color="#F6F6F5"/><stop offset="0.4" stop-color="#F5F5F4"/><stop offset="0.418182" stop-color="#F4F4F4"/><stop offset="0.436364" stop-color="#F3F3F3"/><stop offset="0.454545" stop-color="#F2F2F2"/><stop offset="0.472727" stop-color="#F1F1F1"/><stop offset="0.490909" stop-color="#F1F1F0"/><stop offset="0.509091" stop-color="#F0F0EF"/><stop offset="0.527273" stop-color="#EFEFEE"/><stop offset="0.545455" stop-color="#EDEDED"/><stop offset="0.563636" stop-color="#ECECEB"/><stop offset="0.581818" stop-color="#EBEBEA"/><stop offset="0.6" stop-color="#EAEAE9"/><stop offset="0.618182" stop-color="#E9E9E8"/><stop offset="0.636364" stop-color="#E8E8E7"/><stop offset="0.654545" stop-color="#E7E7E5"/><stop offset="0.672727" stop-color="#E5E5E4"/><stop offset="0.690909" stop-color="#E4E4E3"/><stop offset="0.709091" stop-color="#E3E3E1"/><stop offset="0.727273" stop-color="#E1E1E0"/><stop offset="0.745455" stop-color="#E0E0DE"/><stop offset="0.763636" stop-color="#DFDFDD"/><stop offset="0.781818" stop-color="#DDDDDB"/><stop offset="0.8" stop-color="#DCDCDA"/><stop offset="0.818182" stop-color="#DADAD8"/><stop offset="0.836364" stop-color="#D9D9D6"/><stop offset="0.854545" stop-color="#D7D7D5"/><stop offset="0.872727" stop-color="#D5D5D3"/><stop offset="0.890909" stop-color="#D4D4D1"/><stop offset="0.909091" stop-color="#D2D2D0"/><stop offset="0.927273" stop-color="#D0D0CE"/><stop offset="0.945455" stop-color="#CFCFCC"/><stop offset="0.963636" stop-color="#CDCDCA"/><stop offset="0.981818" stop-color="#CBCBC8"/><stop offset="1" stop-color="#CACAC7"/></linearGradient><linearGradient x1="5.24934e-05" y1="96.6687" x2="5.24934e-05" y2="0" gradientUnits="userSpaceOnUse" spreadMethod="reflect" id="fill5"><stop offset="0" stop-color="#FFFFFF"/><stop offset="0.0181818" stop-color="#FEFEFE"/><stop offset="0.0363636" stop-color="#FEFEFE"/><stop offset="0.0545455" stop-color="#FEFEFE"/><stop offset="0.0727273" stop-color="#FEFEFE"/><stop offset="0.0909091" stop-color="#FEFEFE"/><stop offset="0.109091" stop-color="#FEFEFE"/><stop offset="0.127273" stop-color="#FDFDFD"/><stop offset="0.145455" stop-color="#FDFDFD"/><stop offset="0.163636" stop-color="#FDFDFD"/><stop offset="0.181818" stop-color="#FCFCFC"/><stop offset="0.2" stop-color="#FCFCFC"/><stop offset="0.218182" stop-color="#FBFBFB"/><stop offset="0.236364" stop-color="#FBFBFB"/><stop offset="0.254545" stop-color="#FAFAFA"/><stop offset="0.272727" stop-color="#FAFAFA"/><stop offset="0.290909" stop-color="#F9F9F9"/><stop offset="0.309091" stop-color="#F9F9F8"/><stop offset="0.327273" stop-color="#F8F8F8"/><stop offset="0.345455" stop-color="#F7F7F7"/><stop offset="0.363636" stop-color="#F7F7F6"/><stop offset="0.381818" stop-color="#F6F6F5"/><stop offset="0.4" stop-color="#F5F5F4"/><stop offset="0.418182" stop-color="#F4F4F4"/><stop offset="0.436364" stop-color="#F3F3F3"/><stop offset="0.454545" stop-color="#F2F2F2"/><stop offset="0.472727" stop-color="#F1F1F1"/><stop offset="0.490909" stop-color="#F1F1F0"/><stop offset="0.509091" stop-color="#F0F0EF"/><stop offset="0.527273" stop-color="#EFEFEE"/><stop offset="0.545455" stop-color="#EDEDED"/><stop offset="0.563636" stop-color="#ECECEB"/><stop offset="0.581818" stop-color="#EBEBEA"/><stop offset="0.6" stop-color="#EAEAE9"/><stop offset="0.618182" stop-color="#E9E9E8"/><stop offset="0.636364" stop-color="#E8E8E7"/><stop offset="0.654545" stop-color="#E7E7E5"/><stop offset="0.672727" stop-color="#E5E5E4"/><stop offset="0.690909" stop-color="#E4E4E3"/><stop offset="0.709091" stop-color="#E3E3E1"/><stop offset="0.727273" stop-color="#E1E1E0"/><stop offset="0.745455" stop-color="#E0E0DE"/><stop offset="0.763636" stop-color="#DFDFDD"/><stop offset="0.781818" stop-color="#DDDDDB"/><stop offset="0.8" stop-color="#DCDCDA"/><stop offset="0.818182" stop-color="#DADAD8"/><stop offset="0.836364" stop-color="#D9D9D6"/><stop offset="0.854545" stop-color="#D7D7D5"/><stop offset="0.872727" stop-color="#D5D5D3"/><stop offset="0.890909" stop-color="#D4D4D1"/><stop offset="0.909091" stop-color="#D2D2D0"/><stop offset="0.927273" stop-color="#D0D0CE"/><stop offset="0.945455" stop-color="#CFCFCC"/><stop offset="0.963636" stop-color="#CDCDCA"/><stop offset="0.981818" stop-color="#CBCBC8"/><stop offset="1" stop-color="#CACAC7"/></linearGradient><linearGradient x1="731.565" y1="332.5" x2="731.565" y2="332.5" gradientUnits="userSpaceOnUse" spreadMethod="reflect" id="fill6"><stop offset="0" stop-color="#FFFFFF"/><stop offset="0.0181818" stop-color="#FEFEFE"/><stop offset="0.0363636" stop-color="#FEFEFE"/><stop offset="0.0545455" stop-color="#FEFEFE"/><stop offset="0.0727273" stop-color="#FEFEFE"/><stop offset="0.0909091" stop-color="#FEFEFE"/><stop offset="0.109091" stop-color="#FEFEFE"/><stop offset="0.127273" stop-color="#FDFDFD"/><stop offset="0.145455" stop-color="#FDFDFD"/><stop offset="0.163636" stop-color="#FDFDFD"/><stop offset="0.181818" stop-color="#FCFCFC"/><stop offset="0.2" stop-color="#FCFCFC"/><stop offset="0.218182" stop-color="#FBFBFB"/><stop offset="0.236364" stop-color="#FBFBFB"/><stop offset="0.254545" stop-color="#FAFAFA"/><stop offset="0.272727" stop-color="#FAFAFA"/><stop offset="0.290909" stop-color="#F9F9F9"/><stop offset="0.309091" stop-color="#F9F9F8"/><stop offset="0.327273" stop-color="#F8F8F8"/><stop offset="0.345455" stop-color="#F7F7F7"/><stop offset="0.363636" stop-color="#F7F7F6"/><stop offset="0.381818" stop-color="#F6F6F5"/><stop offset="0.4" stop-color="#F5F5F4"/><stop offset="0.418182" stop-color="#F4F4F4"/><stop offset="0.436364" stop-color="#F3F3F3"/><stop offset="0.454545" stop-color="#F2F2F2"/><stop offset="0.472727" stop-color="#F1F1F1"/><stop offset="0.490909" stop-color="#F1F1F0"/><stop offset="0.509091" stop-color="#F0F0EF"/><stop offset="0.527273" stop-color="#EFEFEE"/><stop offset="0.545455" stop-color="#EDEDED"/><stop offset="0.563636" stop-color="#ECECEB"/><stop offset="0.581818" stop-color="#EBEBEA"/><stop offset="0.6" stop-color="#EAEAE9"/><stop offset="0.618182" stop-color="#E9E9E8"/><stop offset="0.636364" stop-color="#E8E8E7"/><stop offset="0.654545" stop-color="#E7E7E5"/><stop offset="0.672727" stop-color="#E5E5E4"/><stop offset="0.690909" stop-color="#E4E4E3"/><stop offset="0.709091" stop-color="#E3E3E1"/><stop offset="0.727273" stop-color="#E1E1E0"/><stop offset="0.745455" stop-color="#E0E0DE"/><stop offset="0.763636" stop-color="#DFDFDD"/><stop offset="0.781818" stop-color="#DDDDDB"/><stop offset="0.8" stop-color="#DCDCDA"/><stop offset="0.818182" stop-color="#DADAD8"/><stop offset="0.836364" stop-color="#D9D9D6"/><stop offset="0.854545" stop-color="#D7D7D5"/><stop offset="0.872727" stop-color="#D5D5D3"/><stop offset="0.890909" stop-color="#D4D4D1"/><stop offset="0.909091" stop-color="#D2D2D0"/><stop offset="0.927273" stop-color="#D0D0CE"/><stop offset="0.945455" stop-color="#CFCFCC"/><stop offset="0.963636" stop-color="#CDCDCA"/><stop offset="0.981818" stop-color="#CBCBC8"/><stop offset="1" stop-color="#CACAC7"/></linearGradient><linearGradient x1="0.072336" y1="0" x2="0.072336" y2="15.9223" gradientUnits="userSpaceOnUse" spreadMethod="reflect" id="fill7"><stop offset="0" stop-color="#FFFFFF"/><stop offset="0.0181818" stop-color="#FEFEFE"/><stop offset="0.0363636" stop-color="#FEFEFE"/><stop offset="0.0545455" stop-color="#FEFEFE"/><stop offset="0.0727273" stop-color="#FEFEFE"/><stop offset="0.0909091" stop-color="#FEFEFE"/><stop offset="0.109091" stop-color="#FEFEFE"/><stop offset="0.127273" stop-color="#FDFDFD"/><stop offset="0.145455" stop-color="#FDFDFD"/><stop offset="0.163636" stop-color="#FDFDFD"/><stop offset="0.181818" stop-color="#FCFCFC"/><stop offset="0.2" stop-color="#FCFCFC"/><stop offset="0.218182" stop-color="#FBFBFB"/><stop offset="0.236364" stop-color="#FBFBFB"/><stop offset="0.254545" stop-color="#FAFAFA"/><stop offset="0.272727" stop-color="#FAFAFA"/><stop offset="0.290909" stop-color="#F9F9F9"/><stop offset="0.309091" stop-color="#F9F9F8"/><stop offset="0.327273" stop-color="#F8F8F8"/><stop offset="0.345455" stop-color="#F7F7F7"/><stop offset="0.363636" stop-color="#F7F7F6"/><stop offset="0.381818" stop-color="#F6F6F5"/><stop offset="0.4" stop-color="#F5F5F4"/><stop offset="0.418182" stop-color="#F4F4F4"/><stop offset="0.436364" stop-color="#F3F3F3"/><stop offset="0.454545" stop-color="#F2F2F2"/><stop offset="0.472727" stop-color="#F1F1F1"/><stop offset="0.490909" stop-color="#F1F1F0"/><stop offset="0.509091" stop-color="#F0F0EF"/><stop offset="0.527273" stop-color="#EFEFEE"/><stop offset="0.545455" stop-color="#EDEDED"/><stop offset="0.563636" stop-color="#ECECEB"/><stop offset="0.581818" stop-color="#EBEBEA"/><stop offset="0.6" stop-color="#EAEAE9"/><stop offset="0.618182" stop-color="#E9E9E8"/><stop offset="0.636364" stop-color="#E8E8E7"/><stop offset="0.654545" stop-color="#E7E7E5"/><stop offset="0.672727" stop-color="#E5E5E4"/><stop offset="0.690909" stop-color="#E4E4E3"/><stop offset="0.709091" stop-color="#E3E3E1"/><stop offset="0.727273" stop-color="#E1E1E0"/><stop offset="0.745455" stop-color="#E0E0DE"/><stop offset="0.763636" stop-color="#DFDFDD"/><stop offset="0.781818" stop-color="#DDDDDB"/><stop offset="0.8" stop-color="#DCDCDA"/><stop offset="0.818182" stop-color="#DADAD8"/><stop offset="0.836364" stop-color="#D9D9D6"/><stop offset="0.854545" stop-color="#D7D7D5"/><stop offset="0.872727" stop-color="#D5D5D3"/><stop offset="0.890909" stop-color="#D4D4D1"/><stop offset="0.909091" stop-color="#D2D2D0"/><stop offset="0.927273" stop-color="#D0D0CE"/><stop offset="0.945455" stop-color="#CFCFCC"/><stop offset="0.963636" stop-color="#CDCDCA"/><stop offset="0.981818" stop-color="#CBCBC8"/><stop offset="1" stop-color="#CACAC7"/></linearGradient><linearGradient x1="5.24934e-05" y1="95.4522" x2="5.24934e-05" y2="0" gradientUnits="userSpaceOnUse" spreadMethod="reflect" id="fill8"><stop offset="0" stop-color="#FFFFFF"/><stop offset="0.0181818" stop-color="#FEFEFE"/><stop offset="0.0363636" stop-color="#FEFEFE"/><stop offset="0.0545455" stop-color="#FEFEFE"/><stop offset="0.0727273" stop-color="#FEFEFE"/><stop offset="0.0909091" stop-color="#FEFEFE"/><stop offset="0.109091" stop-color="#FEFEFE"/><stop offset="0.127273" stop-color="#FDFDFD"/><stop offset="0.145455" stop-color="#FDFDFD"/><stop offset="0.163636" stop-color="#FDFDFD"/><stop offset="0.181818" stop-color="#FCFCFC"/><stop offset="0.2" stop-color="#FCFCFC"/><stop offset="0.218182" stop-color="#FBFBFB"/><stop offset="0.236364" stop-color="#FBFBFB"/><stop offset="0.254545" stop-color="#FAFAFA"/><stop offset="0.272727" stop-color="#FAFAFA"/><stop offset="0.290909" stop-color="#F9F9F9"/><stop offset="0.309091" stop-color="#F9F9F8"/><stop offset="0.327273" stop-color="#F8F8F8"/><stop offset="0.345455" stop-color="#F7F7F7"/><stop offset="0.363636" stop-color="#F7F7F6"/><stop offset="0.381818" stop-color="#F6F6F5"/><stop offset="0.4" stop-color="#F5F5F4"/><stop offset="0.418182" stop-color="#F4F4F4"/><stop offset="0.436364" stop-color="#F3F3F3"/><stop offset="0.454545" stop-color="#F2F2F2"/><stop offset="0.472727" stop-color="#F1F1F1"/><stop offset="0.490909" stop-color="#F1F1F0"/><stop offset="0.509091" stop-color="#F0F0EF"/><stop offset="0.527273" stop-color="#EFEFEE"/><stop offset="0.545455" stop-color="#EDEDED"/><stop offset="0.563636" stop-color="#ECECEB"/><stop offset="0.581818" stop-color="#EBEBEA"/><stop offset="0.6" stop-color="#EAEAE9"/><stop offset="0.618182" stop-color="#E9E9E8"/><stop offset="0.636364" stop-color="#E8E8E7"/><stop offset="0.654545" stop-color="#E7E7E5"/><stop offset="0.672727" stop-color="#E5E5E4"/><stop offset="0.690909" stop-color="#E4E4E3"/><stop offset="0.709091" stop-color="#E3E3E1"/><stop offset="0.727273" stop-color="#E1E1E0"/><stop offset="0.745455" stop-color="#E0E0DE"/><stop offset="0.763636" stop-color="#DFDFDD"/><stop offset="0.781818" stop-color="#DDDDDB"/><stop offset="0.8" stop-color="#DCDCDA"/><stop offset="0.818182" stop-color="#DADAD8"/><stop offset="0.836364" stop-color="#D9D9D6"/><stop offset="0.854545" stop-color="#D7D7D5"/><stop offset="0.872727" stop-color="#D5D5D3"/><stop offset="0.890909" stop-color="#D4D4D1"/><stop offset="0.909091" stop-color="#D2D2D0"/><stop offset="0.927273" stop-color="#D0D0CE"/><stop offset="0.945455" stop-color="#CFCFCC"/><stop offset="0.963636" stop-color="#CDCDCA"/><stop offset="0.981818" stop-color="#CBCBC8"/><stop offset="1" stop-color="#CACAC7"/></linearGradient><linearGradient x1="567.179" y1="298.5" x2="567.179" y2="393.005" gradientUnits="userSpaceOnUse" spreadMethod="reflect" id="fill9"><stop offset="0" stop-color="#FFFFFF"/><stop offset="0.0181818" stop-color="#FEFEFE"/><stop offset="0.0363636" stop-color="#FEFEFE"/><stop offset="0.0545455" stop-color="#FEFEFE"/><stop offset="0.0727273" stop-color="#FEFEFE"/><stop offset="0.0909091" stop-color="#FEFEFE"/><stop offset="0.109091" stop-color="#FEFEFE"/><stop offset="0.127273" stop-color="#FDFDFD"/><stop offset="0.145455" stop-color="#FDFDFD"/><stop offset="0.163636" stop-color="#FDFDFD"/><stop offset="0.181818" stop-color="#FCFCFC"/><stop offset="0.2" stop-color="#FCFCFC"/><stop offset="0.218182" stop-color="#FBFBFB"/><stop offset="0.236364" stop-color="#FBFBFB"/><stop offset="0.254545" stop-color="#FAFAFA"/><stop offset="0.272727" stop-color="#FAFAFA"/><stop offset="0.290909" stop-color="#F9F9F9"/><stop offset="0.309091" stop-color="#F9F9F8"/><stop offset="0.327273" stop-color="#F8F8F8"/><stop offset="0.345455" stop-color="#F7F7F7"/><stop offset="0.363636" stop-color="#F7F7F6"/><stop offset="0.381818" stop-color="#F6F6F5"/><stop offset="0.4" stop-color="#F5F5F4"/><stop offset="0.418182" stop-color="#F4F4F4"/><stop offset="0.436364" stop-color="#F3F3F3"/><stop offset="0.454545" stop-color="#F2F2F2"/><stop offset="0.472727" stop-color="#F1F1F1"/><stop offset="0.490909" stop-color="#F1F1F0"/><stop offset="0.509091" stop-color="#F0F0EF"/><stop offset="0.527273" stop-color="#EFEFEE"/><stop offset="0.545455" stop-color="#EDEDED"/><stop offset="0.563636" stop-color="#ECECEB"/><stop offset="0.581818" stop-color="#EBEBEA"/><stop offset="0.6" stop-color="#EAEAE9"/><stop offset="0.618182" stop-color="#E9E9E8"/><stop offset="0.636364" stop-color="#E8E8E7"/><stop offset="0.654545" stop-color="#E7E7E5"/><stop offset="0.672727" stop-color="#E5E5E4"/><stop offset="0.690909" stop-color="#E4E4E3"/><stop offset="0.709091" stop-color="#E3E3E1"/><stop offset="0.727273" stop-color="#E1E1E0"/><stop offset="0.745455" stop-color="#E0E0DE"/><stop offset="0.763636" stop-color="#DFDFDD"/><stop offset="0.781818" stop-color="#DDDDDB"/><stop offset="0.8" stop-color="#DCDCDA"/><stop offset="0.818182" stop-color="#DADAD8"/><stop offset="0.836364" stop-color="#D9D9D6"/><stop offset="0.854545" stop-color="#D7D7D5"/><stop offset="0.872727" stop-color="#D5D5D3"/><stop offset="0.890909" stop-color="#D4D4D1"/><stop offset="0.909091" stop-color="#D2D2D0"/><stop offset="0.927273" stop-color="#D0D0CE"/><stop offset="0.945455" stop-color="#CFCFCC"/><stop offset="0.963636" stop-color="#CDCDCA"/><stop offset="0.981818" stop-color="#CBCBC8"/><stop offset="1" stop-color="#CACAC7"/></linearGradient></defs><g clip-path="url(#clip0)" transform="translate(-135 -163)"><path d="M436.5 394.5 822.055 394.5" stroke="#57564F" stroke-linejoin="round" stroke-miterlimit="10" fill="url(#fill1)" fill-rule="evenodd"/><path d="M159.5 394.5 403.851 394.5" stroke="#57564F" stroke-linejoin="round" stroke-miterlimit="10" fill="url(#fill2)" fill-rule="evenodd"/><rect x="144.5" y="164.5" width="175" height="132" stroke="#B1B1AC" stroke-linejoin="round" stroke-miterlimit="10" fill="#DAD9D6"/><text font-family="Arial,Arial_MSFontService,sans-serif" font-weight="400" font-size="13" transform="translate(187.849 182)">Cactus node.js</text><rect x="238.5" y="218.5" width="68" height="27" stroke="#B1B1AC" stroke-linejoin="round" stroke-miterlimit="10" fill="#DAD9D6"/><text font-family="Arial,Arial_MSFontService,sans-serif" font-weight="400" font-size="13" transform="translate(251.683 237)">verifier</text><rect x="154.5" y="259.5" width="63" height="26" stroke="#B1B1AC" stroke-linejoin="round" stroke-miterlimit="10" fill="#DAD9D6"/><text font-family="Arial,Arial_MSFontService,sans-serif" font-weight="400" font-size="13" transform="translate(172.681 277)">BLP</text><rect x="359.5" y="164.5" width="148" height="133" stroke="#B1B1AC" stroke-linejoin="round" stroke-miterlimit="10" fill="#DAD9D6"/><text font-family="Arial,Arial_MSFontService,sans-serif" font-weight="400" font-size="13" transform="translate(388.079 182)">nginx<tspan x="35.3333" y="0">container</tspan><tspan x="246.333" y="227">indy_net</tspan><tspan x="299.999" y="227">(docker bridge network)</tspan><tspan x="302.579" y="243">172.16.0.0/16</tspan></text><path d="M6.67875-0.297843 10.3276-0.187271 20.605 0.689312 30.7608 2.1929 40.5969 4.13447 50.189 6.64126 59.3378 9.52311 67.9888 12.7821 76.08 16.419 83.5493 20.4346 90.2654 24.6387 96.179 29.1656 101.217 33.8852 105.32 38.74C105.337 38.7609 105.353 38.7833 105.367 38.8069L108.305 43.7444C108.32 43.7699 108.333 43.7966 108.343 43.8244L110.218 48.8244C110.232 48.8613 110.241 48.8997 110.246 48.9387L110.871 54.0012 110.75 64.1312 110.5 73.8878 109.999 83.0897 109.436 91.2843 109.123 94.9179 108.747 98.1823 108.087 101.791 107.103 101.611 107.753 98.0677 108.127 94.8321 108.439 91.2157 109.001 83.0353 109.5 73.8622 109.75 64.1188 109.879 54.1238 109.254 49.0613 109.282 49.1756 107.407 44.1756 107.445 44.2556 104.508 39.3181 104.555 39.385 100.533 34.6148 95.571 29.9594 89.7346 25.4863 83.0757 21.3154 75.67 17.331 67.6362 13.7179 59.0372 10.4769 49.936 7.60874 40.4031 5.11553 30.6142 3.1821 20.52 1.68569 10.2974 0.812271 6.64846 0.701698ZM7.87517 4.24048 0 0 8.11749-3.75585ZM111.806 101.485 105.812 108.125 104.097 99.3468Z" fill="#57564F" transform="matrix(-4.37114e-08 1 1 4.37114e-08 272.5 245.5)"/><text font-family="Arial,Arial_MSFontService,sans-serif" font-weight="400" font-size="13" transform="translate(145.475 402)">any network<tspan x="69.5015" y="-65">cactus API</tspan><tspan x="69.5015" y="-49">over socket.io</tspan><tspan x="69.5015" y="-33">over </tspan>Websocket</text><path d="M187.165 253.595 187.654 252.223C187.672 252.174 187.697 252.127 187.729 252.086L189.604 249.648 192.021 247.225 194.87 244.879 198.092 242.666 201.693 240.642 209.673 237.121 218.602 234.351 228.096 232.587 231.315 232.378 231.379 233.376 228.279 233.57 218.898 235.306 210.077 238.036 202.182 241.514 198.658 243.49 195.505 245.652 192.729 247.932 190.396 250.258 188.521 252.696 188.596 252.558 188.107 253.931ZM191.853 253.782 185.5 260.078 184.275 251.218ZM229.762 228.97 238 232.453 230.27 236.954Z" fill="#57564F"/><path d="M0 0 0.000104987 96.4704" stroke="#57564F" stroke-linejoin="round" stroke-miterlimit="10" fill="url(#fill3)" fill-rule="evenodd" transform="matrix(1 0 0 -1 170.5 393.97)"/><path d="M0 0 0.000104987 96.4704" stroke="#57564F" stroke-linejoin="round" stroke-miterlimit="10" fill="url(#fill4)" fill-rule="evenodd" transform="matrix(1 0 0 -1 393.5 393.97)"/><rect x="541.5" y="164.5" width="127" height="133" stroke="#B1B1AC" stroke-linejoin="round" stroke-miterlimit="10" fill="#DAD9D6"/><text font-family="Arial,Arial_MSFontService,sans-serif" font-weight="400" font-size="13" transform="translate(555.735 182)">python container</text><rect x="686.5" y="164.5" width="158" height="133" stroke="#B1B1AC" stroke-linejoin="round" stroke-miterlimit="10" fill="#DAD9D6"/><text font-family="Arial,Arial_MSFontService,sans-serif" font-weight="400" font-size="13" transform="translate(707.138 182)">Indy_pool<tspan x="61" y="0">container</tspan></text><rect x="696.5" y="295.5" width="22" height="68" stroke="#B1B1AC" stroke-linejoin="round" stroke-miterlimit="10" fill="#DAD9D6"/><text font-family="Arial,Arial_MSFontService,sans-serif" font-weight="400" font-size="13" transform="matrix(-1.83697e-16 -1 1 -1.83697e-16 712.165 360)">9701:9701</text><rect x="746.5" y="294.5" width="21" height="68" stroke="#B1B1AC" stroke-linejoin="round" stroke-miterlimit="10" fill="#DAD9D6"/><text font-family="Arial,Arial_MSFontService,sans-serif" font-weight="400" font-size="13" transform="matrix(-1.83697e-16 -1 1 -1.83697e-16 761.627 359)">9708:9708</text><path d="M0 0 0.000104987 96.6687" stroke="#57564F" stroke-linejoin="round" stroke-miterlimit="10" fill="url(#fill5)" fill-rule="evenodd" transform="matrix(1 0 0 -1 475.5 394.169)"/><rect x="429.5" y="265.5" width="68" height="27" stroke="#B1B1AC" stroke-linejoin="round" stroke-miterlimit="10" fill="#DAD9D6"/><text font-family="Arial,Arial_MSFontService,sans-serif" font-weight="400" font-size="13" transform="translate(447.266 283)">nginx</text><rect x="369.5" y="290.5" width="22" height="61" stroke="#B1B1AC" stroke-linejoin="round" stroke-miterlimit="10" fill="#DAD9D6"/><text font-family="Arial,Arial_MSFontService,sans-serif" font-weight="400" font-size="13" transform="matrix(-1.83697e-16 -1 1 -1.83697e-16 384.758 348)">10080:80</text><rect x="404.5" y="272.5" width="34" height="22" stroke="#B1B1AC" stroke-linejoin="round" stroke-miterlimit="10" fill="#DAD9D6"/><text font-family="Arial,Arial_MSFontService,sans-serif" font-weight="400" font-size="13" transform="translate(413.571 288)">80</text><path d="M6.68535-0.023749 8.78562 0.126271 12.8421 0.883564 16.5002 1.82843C16.5414 1.83909 16.5811 1.85498 16.6183 1.87571L18.6651 3.01596 18.1784 3.88954 16.1317 2.74929 16.2498 2.79657 12.6579 1.86644 8.71438 1.12373 6.6141 0.97371ZM7.69468 4.55981 0 0 8.26466-3.41986ZM19.6969-0.56616 23.8125 7.375 14.9902 5.90277Z" fill="#57564F" transform="matrix(-1 -8.74228e-08 -8.74228e-08 1 404.289 283.5)"/><rect x="765.5" y="232.5" width="75" height="19" stroke="#B1B1AC" stroke-linejoin="round" stroke-miterlimit="10" fill="#DAD9D6"/><text font-family="Arial,Arial_MSFontService,sans-serif" font-weight="400" font-size="13" transform="translate(773.226 246)">indy<tspan x="24.3334" y="0">-</tspan>node</text><rect x="767.5" y="269.5" width="75" height="20" stroke="#B1B1AC" stroke-linejoin="round" stroke-miterlimit="10" fill="#DAD9D6"/><text font-family="Arial,Arial_MSFontService,sans-serif" font-weight="400" font-size="13" transform="translate(775.29 284)">indy<tspan x="24.3333" y="0">-</tspan>node</text><path d="M722.5 332.5 740.63 332.5" stroke="#57564F" stroke-width="2.66667" stroke-linejoin="round" stroke-miterlimit="10" stroke-dasharray="2.66667 2.66667" fill="url(#fill6)" fill-rule="evenodd"/><path d="M0 0 0.144672 15.9223" stroke="#57564F" stroke-width="2.66667" stroke-linejoin="round" stroke-miterlimit="10" stroke-dasharray="2.66667 2.66667" fill="url(#fill7)" fill-rule="evenodd" transform="matrix(-1 -8.74228e-08 -8.74228e-08 1 802.645 252.5)"/><path d="M0 0 0.000104987 95.4522" stroke="#57564F" stroke-linejoin="round" stroke-miterlimit="10" fill="url(#fill8)" fill-rule="evenodd" transform="matrix(1 0 0 -1 802.5 392.952)"/><path d="M6.70877 0.112465 10.8198 0.692402 16.1931 2.14236 21.3643 4.09481 26.4066 6.55056 31.1922 9.38226 35.7901 12.6553 40.0115 16.2442 43.9189 20.2118 47.4438 24.364 50.5963 28.8371 53.2459 33.4382 55.3336 38.2384 56.9136 43.1599C56.921 43.1828 56.9267 43.2062 56.9306 43.23L57.4851 46.5441 56.4989 46.7091 55.9444 43.395 55.9614 43.4651 54.4164 38.6366 52.3791 33.9368 49.7787 29.4129 46.6812 25.011 43.2061 20.9132 39.3635 17.0058 35.2099 13.4697 30.6828 10.2427 25.9684 7.44944 21.0107 5.03019 15.9319 3.10764 10.6802 1.6826 6.56908 1.10266ZM7.60217 4.71243 0 0 8.33125-3.25428ZM60.8145 44.8471 57.75 53.25 52.8663 45.7567Z" fill="#57564F" transform="matrix(-1 -8.74228e-08 -8.74228e-08 1 765.223 241.5)"/><path d="M5.96136 3.12242 7.42585 4.22564C7.4963 4.27871 7.55146 4.34947 7.58572 4.43075L9.11295 8.05302 8.19151 8.44152 6.66428 4.81925 6.82415 5.02436 5.35967 3.92115ZM4.67955 7.62245 0 0 8.90569 0.829834ZM12.1718 5.92557 10.375 14.6875 4.44354 7.99289Z" fill="#57564F" transform="matrix(-1 -8.74228e-08 -8.74228e-08 1 767.825 279.5)"/><path d="M567.858 393.005 566.5 298.5" stroke="#57564F" stroke-linejoin="round" stroke-miterlimit="10" fill="url(#fill9)" fill-rule="evenodd"/><rect x="573.5" y="187.5" width="88" height="68" stroke="#B1B1AC" stroke-linejoin="round" stroke-miterlimit="10" fill="#DAD9D6"/><text font-family="Arial,Arial_MSFontService,sans-serif" font-weight="400" font-size="13" transform="translate(574.74 202)">Validator code<tspan x="15.5" y="16">in python</tspan><tspan x="-1.33331" y="32">+ python3</tspan><tspan x="57.1667" y="32">-</tspan>indy<tspan x="15.1667" y="48">+ </tspan>uWSGI</text><rect x="538.5" y="291.5" width="22" height="41" stroke="#B1B1AC" stroke-linejoin="round" stroke-miterlimit="10" fill="#DAD9D6"/><text font-family="Arial,Arial_MSFontService,sans-serif" font-weight="400" font-size="13" transform="matrix(-1.83697e-16 -1 1 -1.83697e-16 554.209 328)">80:80</text><path d="M6.67792-0.315972 9.07629-0.24981 18.1006 0.438952 27.0038 1.62942 35.7135 3.1954 44.1161 5.20117 52.1354 7.45617 59.7265 10.0901 66.8135 12.9744 73.406 16.1752 79.3116 19.5664 84.5331 23.1503 88.9472 26.8677 92.496 30.7899C92.5124 30.808 92.5275 30.8273 92.541 30.8477L95.166 34.7851C95.1847 34.8132 95.2005 34.8431 95.2132 34.8743L96.8382 38.8743C96.8537 38.9124 96.8644 38.9522 96.8701 38.9929L97.4326 42.9929C97.4377 43.0286 97.4388 43.0648 97.436 43.1008L97.1235 47.1633C97.1214 47.1913 97.1169 47.2191 97.1101 47.2463L96.1101 51.2463 94.5922 55.2405C94.5836 55.263 94.5735 55.2849 94.5617 55.3059L92.4367 59.1184 89.8503 62.9071 86.7542 66.5134 83.2221 69.9224 79.3795 73.0742 70.6424 78.61 65.8439 80.9496 60.8701 82.9029 55.7725 84.4778 50.4853 85.6752 46.3914 86.1329 46.281 85.139 50.2647 84.6998 55.4775 83.5222 60.5049 81.9721 65.4061 80.0504 70.1075 77.765 78.7455 72.3008 82.5279 69.2026 85.9958 65.8615 89.0247 62.3429 91.5633 58.6316 93.6883 54.8191 93.6578 54.8845 95.1399 51.0037 96.1399 47.0037 96.1265 47.0866 96.439 43.0241 96.4424 43.1321 95.8799 39.1321 95.9118 39.2507 94.2868 35.2507 94.334 35.3398 91.709 31.4023 91.7539 31.4601 88.3028 27.6323 83.9669 23.9747 78.8134 20.4336 72.969 17.0748 66.4365 13.9006 59.3985 11.0349 51.8646 8.41883 43.8839 6.17382 35.5365 4.1796 26.8712 2.62058 18.0244 1.43605 9.04871 0.74981 6.65034 0.683648ZM7.88665 4.21908 0 0 8.10726-3.77787ZM47.9594 89.5273 39.6875 86.125 47.3725 81.5489Z" fill="#57564F" transform="matrix(-4.37114e-08 1 1 4.37114e-08 463.5 292.5)"/><text font-family="Arial,Arial_MSFontService,sans-serif" font-weight="400" font-size="13" transform="translate(406.218 346)">cactus API<tspan x="0" y="16">over </tspan>uwsgi<tspan x="0" y="32">over </tspan>Websocket</text><path d="M3.25963 5.92963 4.48251 10.4314 5.2446 15.5517 5.81012 21.3263 6.12079 27.0591 5.12225 27.1131 4.81488 21.4237 4.2554 15.6983 3.51749 10.6936 2.2946 6.19177ZM-0.303887 8.93911 0 0 6.96895 5.60657ZM9.58168 25.6387 5.8125 33.75 1.58496 25.8679Z" fill="#57564F" transform="matrix(-1 -8.74228e-08 -8.74228e-08 1 555.269 258.5)"/><rect x="555.5" y="247.5" width="27" height="21" stroke="#B1B1AC" stroke-linejoin="round" stroke-miterlimit="10" fill="#DAD9D6"/><text font-family="Arial,Arial_MSFontService,sans-serif" font-weight="400" font-size="13" transform="translate(561.23 263)">80</text><path d="M633.699 301.086 633.873 303.082 634.125 309.104 634.312 316.174 634.5 324.051 634.563 332.496 634.625 341.246 634.812 345.604 635.433 349.929 636.424 354.136 637.788 358.282 641.392 366.103 641.352 366.034 646.102 373.096 646.052 373.033 651.677 379.033 654.691 381.488 657.84 383.584 661.043 385.244 664.421 386.468 667.803 387.263 667.724 387.251 671.161 387.501 671.084 387.502 677.959 386.939 684.642 385.449 684.572 385.47 690.822 383.095 696.386 380.061 696.319 380.105 701.007 376.48 700.942 376.539 704.63 372.477 704.549 372.597 705.72 370.139 706.623 370.57 705.451 373.028C705.43 373.072 705.403 373.112 705.37 373.149L701.683 377.211C701.663 377.233 701.642 377.253 701.618 377.271L696.931 380.896C696.91 380.912 696.888 380.926 696.864 380.939L691.178 384.03 684.928 386.405C684.905 386.414 684.882 386.42 684.859 386.426L678.041 387.936 671.166 388.498C671.14 388.5 671.114 388.501 671.089 388.499L667.651 388.249C667.625 388.247 667.598 388.243 667.573 388.237L664.079 387.407 660.582 386.131 657.285 384.416 654.059 382.262 650.948 379.717 645.323 373.717C645.304 373.697 645.288 373.676 645.273 373.654L640.523 366.592C640.508 366.569 640.495 366.546 640.483 366.522L636.838 358.594 635.451 354.365 634.443 350.071 633.813 345.646 633.625 341.254 633.563 332.504 633.5 324.074 633.313 316.201 633.125 309.146 632.877 303.168 632.703 301.173ZM629.364 302.876 632.5 294.5 637.319 302.035ZM701.956 370.416 708.188 364 709.581 372.835Z" fill="#57564F"/><path d="M620.839 301.804 621.427 304.649 622.122 311.071 622.686 318.713 623.124 327.162 623.375 336.236 623.5 345.556 623.873 350.21 623.861 350.132 624.986 354.757 626.777 359.253 629.19 363.699 632.22 367.961 635.753 372.048 639.786 375.954 644.251 379.548 649.157 382.9 654.373 385.878 659.845 388.551 665.618 390.784 671.582 392.584 677.672 393.95 683.815 394.754 690.087 395.063 696.298 394.875 702.518 394.315 714.606 392.319 725.864 389.144 731.072 387.158 735.925 385.042 740.457 382.682 744.488 380.199 748.011 377.538 751.037 374.757 753.431 371.927 753.361 372.035 754.599 369.433 755.502 369.863 754.264 372.465C754.245 372.504 754.222 372.54 754.194 372.573L751.713 375.493 748.614 378.337 745.012 381.051 740.918 383.569 736.325 385.958 731.428 388.092 726.136 390.106 714.769 393.306 702.607 395.311 696.328 395.875 690.038 396.062 683.685 395.746 677.453 394.925 671.293 393.541 665.257 391.716 659.406 389.449 653.877 386.747 648.593 383.725 643.624 380.327 639.09 376.672 634.997 372.702 631.405 368.54 628.31 364.176 625.848 359.622 624.014 354.993 622.889 350.368C622.883 350.343 622.879 350.316 622.877 350.29L622.5 345.569 622.375 336.264 622.126 327.213 621.689 318.787 621.128 311.179 620.448 304.851 619.86 302.006ZM616.876 304.296 618.5 295.5 624.562 302.076ZM750.835 369.671 757.125 363.313 758.438 372.16Z" fill="#57564F"/><rect x="572.5" y="272.5" width="89" height="22" stroke="#B1B1AC" stroke-linejoin="round" stroke-miterlimit="10" fill="#DAD9D6"/><text font-family="Arial,Arial_MSFontService,sans-serif" font-weight="400" font-size="13" transform="translate(588.864 288)">libindy.so</text><path d="M617.162 266.131 617.251 264.296C617.253 264.25 617.261 264.205 617.276 264.161L617.338 263.974 617.401 263.786 617.375 263.936 617.406 262.101 618.406 262.118 618.375 263.953C618.374 264.004 618.365 264.054 618.349 264.103L618.287 264.29 618.224 264.478 618.25 264.344 618.161 266.179ZM621.693 264.919 617.5 272.82 613.695 264.725ZM613.876 263.349 618.063 255.445 621.874 263.536Z" fill="#57564F"/></g></svg>