<?xml version="1.0" standalone="no"?>
<!DOCTYPE svg PUBLIC "-//W3C//DTD SVG 20010904//EN"
 "http://www.w3.org/TR/2001/REC-SVG-20010904/DTD/svg10.dtd">
<svg version="1.0" xmlns="http://www.w3.org/2000/svg"
 width="1280.000000pt" height="905.000000pt" viewBox="0 0 1280.000000 905.000000"
 preserveAspectRatio="xMidYMid meet">
<metadata>
Created by potrace 1.15, written by Peter Selinger 2001-2017
</metadata>
<g transform="translate(0.000000,905.000000) scale(0.100000,-0.100000)"
fill="#2196f3" stroke="none">
<path d="M2481 9036 c-22 -12 -133 -206 -190 -332 -11 -23 -39 -77 -64 -120
-24 -44 -84 -155 -132 -249 -48 -93 -105 -201 -126 -238 -51 -90 -79 -155 -79
-181 0 -24 5 -34 153 -313 53 -101 97 -185 97 -187 0 -2 17 -35 39 -73 21 -37
73 -135 116 -218 154 -298 165 -316 202 -331 28 -12 130 -14 599 -12 l566 3
27 32 c14 17 50 78 80 135 110 212 174 334 201 383 26 47 48 88 190 360 32 61
70 132 84 159 32 61 32 71 0 132 -15 27 -50 94 -79 149 -121 233 -179 342
-195 370 -10 17 -45 82 -78 145 -33 63 -87 167 -120 230 -33 63 -71 127 -85
143 l-25 27 -578 0 c-465 -1 -584 -3 -603 -14z"/>
<path d="M8808 7849 c-20 -8 -43 -41 -97 -139 -39 -71 -71 -132 -71 -134 0 -4
-42 -83 -230 -436 -45 -85 -109 -207 -142 -270 -33 -63 -64 -119 -69 -125 -21
-22 -7 -76 40 -161 27 -49 78 -143 113 -210 34 -67 96 -184 137 -260 85 -158
120 -226 216 -409 37 -71 74 -136 83 -142 12 -10 152 -13 622 -13 l607 0 20
23 c11 12 46 72 78 132 33 61 83 155 112 210 30 55 65 123 79 150 14 28 40 77
57 110 18 33 60 112 94 175 34 63 86 162 117 219 61 114 67 148 36 198 -10 17
-46 83 -78 145 -90 172 -152 288 -182 343 -15 28 -54 102 -87 165 -33 63 -82
156 -109 206 -27 49 -62 116 -79 148 -22 42 -39 62 -62 72 -26 11 -139 14
-605 13 -345 0 -584 -4 -600 -10z"/>
<path d="M611 7781 c-27 -7 -47 -37 -142 -217 -59 -114 -90 -172 -174 -329
-50 -93 -131 -247 -222 -424 -59 -115 -73 -149 -68 -172 6 -27 23 -62 89 -184
17 -33 67 -127 110 -210 43 -82 91 -172 106 -200 15 -27 53 -99 85 -160 145
-276 169 -321 188 -342 l20 -23 587 0 c454 0 590 3 602 13 8 6 40 59 70 117
62 118 131 248 191 360 22 41 67 127 100 190 33 63 98 186 144 274 84 159 94
195 70 231 -8 11 -46 81 -84 155 -39 74 -89 169 -110 210 -22 41 -66 125 -98
185 -32 61 -75 142 -96 180 -54 100 -147 276 -158 300 -23 51 -3 50 -615 52
-314 1 -582 -2 -595 -6z"/>
<path d="M4605 7780 c-34 -11 -36 -14 -143 -220 -41 -80 -103 -197 -137 -260
-34 -63 -77 -144 -95 -180 -18 -36 -47 -90 -63 -120 -99 -181 -170 -328 -169
-351 0 -14 23 -66 50 -115 27 -49 58 -109 70 -134 12 -25 43 -85 71 -135 27
-49 82 -153 122 -230 40 -77 90 -171 111 -210 21 -38 46 -88 57 -110 37 -73
87 -164 100 -179 12 -14 81 -16 601 -16 545 0 589 1 608 18 11 9 40 55 65 102
24 47 61 117 82 155 20 39 75 144 122 235 47 91 94 179 103 195 10 17 44 80
75 140 32 61 75 142 97 182 22 40 40 85 40 100 1 31 -25 90 -105 238 -29 55
-79 150 -111 210 -32 61 -75 142 -96 180 -36 66 -56 105 -195 370 -32 61 -64
117 -72 125 -12 13 -92 15 -586 17 -320 1 -585 -2 -602 -7z"/>
<path d="M6863 6557 c-13 -7 -44 -53 -70 -102 -26 -50 -60 -112 -75 -140 -15
-27 -40 -75 -56 -105 -15 -30 -48 -93 -72 -140 -24 -47 -62 -119 -85 -160 -23
-41 -71 -131 -107 -200 -36 -69 -84 -160 -107 -203 -46 -87 -49 -107 -22 -157
10 -19 39 -73 63 -120 25 -47 57 -105 70 -130 14 -25 56 -106 95 -180 39 -74
101 -191 138 -260 37 -69 96 -181 132 -250 36 -69 74 -133 85 -142 19 -17 63
-18 618 -18 555 0 599 1 618 18 17 14 132 212 132 227 0 3 22 44 48 92 27 49
80 147 117 218 117 223 150 286 229 433 42 78 76 154 76 170 0 15 -7 41 -16
57 -9 17 -34 66 -57 110 -22 44 -59 114 -82 155 -23 41 -67 122 -97 180 -31
58 -93 175 -138 260 -45 85 -109 205 -141 266 -41 76 -67 114 -85 122 -37 18
-1180 16 -1211 -1z"/>
<path d="M10972 6557 c-14 -6 -40 -43 -63 -86 -22 -42 -54 -103 -72 -136 -18
-33 -62 -116 -98 -185 -130 -246 -172 -325 -189 -355 -10 -16 -45 -82 -78
-145 -33 -63 -71 -137 -86 -164 -30 -56 -32 -98 -8 -142 9 -18 37 -70 61 -115
23 -46 46 -88 51 -94 4 -5 39 -71 77 -145 118 -226 158 -301 212 -398 28 -50
51 -95 51 -98 0 -15 114 -211 132 -226 19 -17 63 -18 615 -18 382 0 601 4 613
10 11 6 38 47 61 93 22 45 68 130 100 188 32 58 59 108 59 112 0 3 17 36 39
74 21 37 66 122 101 188 34 66 78 149 98 185 90 167 152 293 152 309 0 10 -15
47 -33 82 -19 35 -64 123 -102 194 -37 72 -71 135 -75 140 -4 6 -43 78 -86
160 -43 83 -92 176 -109 207 -16 32 -50 95 -74 140 -87 166 -103 193 -127 216
l-25 22 -587 -1 c-412 0 -594 -4 -610 -12z"/>
<path d="M2490 6387 c-25 -12 -38 -33 -123 -197 -24 -47 -62 -119 -84 -160
-96 -179 -223 -420 -223 -424 0 -2 -30 -57 -66 -122 -104 -189 -118 -229 -95
-272 51 -92 142 -263 203 -382 42 -80 90 -172 108 -205 18 -33 57 -107 87
-165 127 -243 166 -311 183 -320 12 -6 235 -10 599 -10 l580 0 25 23 c13 12
92 150 174 307 185 352 238 454 384 729 34 65 35 76 2 137 -15 27 -92 173
-172 324 -80 151 -163 309 -185 350 -21 41 -68 129 -102 195 -88 168 -97 183
-123 194 -35 17 -1139 15 -1172 -2z"/>
<path d="M8801 5127 c-14 -7 -46 -56 -83 -127 -33 -63 -87 -164 -119 -223 -32
-59 -59 -110 -59 -112 0 -3 -24 -49 -54 -102 -29 -54 -79 -147 -111 -208 -32
-60 -72 -135 -88 -165 -77 -141 -97 -183 -97 -207 0 -23 30 -85 157 -323 22
-41 68 -129 103 -195 34 -66 66 -124 70 -130 7 -9 63 -115 200 -379 32 -61 66
-113 76 -117 11 -4 289 -8 620 -8 l601 -1 20 23 c18 19 92 156 276 507 27 52
71 134 97 181 27 47 55 101 64 120 8 19 40 79 70 134 85 155 86 156 86 189 0
17 -10 47 -21 66 -12 19 -87 158 -167 310 -80 151 -172 325 -204 385 -32 61
-70 133 -84 160 -74 146 -114 211 -135 222 -18 10 -164 13 -609 13 -445 0
-591 -3 -609 -13z"/>
<path d="M4783 5033 c-28 -5 -30 -9 -90 -123 -28 -52 -90 -169 -138 -260 -49
-91 -113 -212 -143 -270 -30 -58 -74 -140 -98 -182 -24 -43 -44 -80 -44 -83 0
-4 -25 -51 -55 -106 -56 -101 -65 -140 -41 -174 7 -11 46 -83 87 -160 40 -77
99 -189 131 -250 33 -60 70 -132 84 -160 14 -27 38 -72 53 -100 15 -27 55
-104 90 -170 91 -172 122 -228 139 -247 14 -17 56 -18 622 -18 470 0 610 3
622 13 9 6 43 64 76 127 33 63 71 135 85 160 13 25 47 88 74 140 126 240 167
318 188 355 20 36 97 180 164 309 l25 49 -68 131 c-38 72 -80 154 -95 181 -15
28 -60 113 -100 190 -40 77 -77 145 -81 150 -4 6 -40 73 -81 150 -161 307
-174 330 -199 342 -19 10 -158 12 -605 11 -319 0 -590 -3 -602 -5z"/>
<path d="M2826 3728 c-14 -13 -62 -93 -107 -178 -125 -238 -163 -308 -209
-395 -24 -44 -75 -141 -113 -215 -38 -74 -76 -146 -85 -160 -48 -75 -93 -177
-88 -200 2 -14 40 -92 84 -175 43 -82 102 -193 129 -245 78 -147 174 -329 208
-392 16 -31 49 -92 71 -135 23 -43 54 -100 68 -128 15 -27 34 -56 43 -62 13
-10 152 -13 614 -13 l598 0 25 23 c13 12 51 74 84 137 33 63 77 147 98 185 20
39 60 113 87 165 27 52 72 138 100 190 68 125 158 297 204 387 l37 72 -45 88
c-75 145 -170 326 -189 358 -10 17 -42 77 -72 135 -31 58 -93 175 -138 260
-45 85 -98 185 -117 222 -18 37 -43 74 -55 83 -20 13 -97 15 -615 15 l-592 0
-25 -22z"/>
<path d="M6932 3734 c-12 -8 -22 -19 -22 -24 0 -4 -17 -39 -39 -77 -21 -37
-66 -122 -101 -188 -34 -66 -75 -142 -90 -170 -27 -49 -99 -186 -177 -335 -22
-41 -70 -132 -106 -201 -37 -69 -67 -137 -67 -150 0 -13 8 -40 19 -59 10 -19
45 -87 78 -150 33 -63 76 -144 95 -180 19 -36 59 -110 88 -165 29 -55 69 -131
90 -170 40 -74 121 -227 177 -335 58 -110 -10 -100 670 -100 369 0 601 4 613
10 18 10 57 77 173 300 33 63 72 138 88 166 15 28 45 84 67 125 21 41 57 108
79 149 136 254 203 389 203 407 0 23 -46 120 -125 263 -29 52 -75 138 -102
190 -85 162 -170 322 -212 400 -23 41 -46 86 -51 99 -33 75 -106 190 -127 200
-16 8 -205 11 -611 11 -516 0 -590 -2 -610 -16z"/>
<path d="M4772 2307 c-13 -6 -40 -43 -60 -82 -20 -38 -85 -161 -144 -273 -59
-111 -108 -204 -108 -206 0 -2 -21 -41 -46 -86 -25 -46 -69 -129 -99 -184 -29
-56 -76 -145 -104 -198 -28 -53 -51 -106 -51 -118 0 -17 94 -208 135 -275 7
-11 38 -69 70 -130 358 -682 380 -721 405 -735 22 -12 1209 -14 1226 -2 15 9
62 89 137 232 82 159 138 264 217 410 84 156 160 299 219 413 l45 87 -42 83
c-42 82 -127 241 -174 327 -14 25 -60 113 -103 195 -42 83 -81 155 -85 160 -6
9 -75 137 -170 320 -15 28 -37 56 -51 62 -18 10 -164 13 -609 13 -445 0 -591
-3 -608 -13z"/>
</g>
</svg>
